<svg width="182.75439453125px" height="116px" xmlns="http://www.w3.org/2000/svg" viewBox="158.622802734375 17 182.75439453125 116" style="background: none;" preserveAspectRatio="xMidYMid"><defs><filter id="editing-extrude-glow"><feFlood flood-color="#ffffff" result="flood-1"></feFlood><feMorphology operator="erode" radius="1" in="SourceAlpha" result="erode"></feMorphology><feComposite operator="in" in="flood-1" in2="erode" result="comp1"></feComposite><feConvolveMatrix order="2,2" divisor="1" in="comp1" result="convolve" kernelMatrix="0 0 1 1"></feConvolveMatrix><feOffset dx="-2" dy="0" in="convolve" result="extrude"></feOffset><feComposite operator="in" in="flood-1" in2="extrude" result="comp-extrude"></feComposite><feFlood flood-color="#e4b25a" result="flood-2"></feFlood><feComposite operator="in" in="flood-2" in2="SourceAlpha" result="comp2"></feComposite><feMorphology operator="dilate" radius="1" in="comp2" result="dilate"></feMorphology><feOffset dx="-3" dy="0" in="dilate" result="offset"></feOffset><feGaussianBlur in="offset" stdDeviation="5.8" result="blur"></feGaussianBlur><feComponentTransfer in="blur" result="shadow"><feFuncA type="linear" slope="0.8" intercept="-0.2"></feFuncA></feComponentTransfer><feMerge><feMergeNode in="shadow"></feMergeNode><feMergeNode in="comp-extrude"></feMergeNode><feMergeNode in="SourceGraphic"></feMergeNode></feMerge></filter></defs><g filter="url(#editing-extrude-glow)"><g transform="translate(189.08017921447754, 102.93999862670898)"><path d="M23.28-8.92L23.28-8.92Q23.80-8.92 24.10-8.44L24.10-8.44L24.10-8.44Q24.40-7.96 24.40-7.12L24.40-7.12L24.40-7.12Q24.40-5.52 23.64-4.64L23.64-4.64L23.64-4.64Q21.92-2.52 19.94-1.16L19.94-1.16L19.94-1.16Q17.96 0.20 15.44 0.20L15.44 0.20L15.44 0.20Q13.32 0.20 12-1.32L12-1.32L12-1.32Q9.72 0.16 7.24 0.20L7.24 0.20L7.24 0.20Q6.72 7.92 4.88 13.10L4.88 13.10L4.88 13.10Q3.04 18.28-0.52 18.28L-0.52 18.28L-0.52 18.28Q-2.68 18.28-3.72 16.72L-3.72 16.72L-3.72 16.72Q-4.76 15.16-4.76 12.40L-4.76 12.40L-4.76 12.40Q-4.76 8.48-2.96 3.26L-2.96 3.26L-2.96 3.26Q-1.16-1.96 2.60-8.24L2.60-8.24L2.60-8.24Q2.60-14.08 2.52-16.36L2.52-16.36L2.52-16.36Q2.48-17.52 3.44-18.20L3.44-18.20L3.44-18.20Q4.40-18.88 5.84-18.88L5.84-18.88L5.84-18.88Q6.68-18.88 7.06-18.54L7.06-18.54L7.06-18.54Q7.44-18.20 7.48-17.20L7.48-17.20L7.48-17.20Q7.48-16.20 7.52-15.72L7.52-15.72L7.52-15.72Q8.80-17.32 10.04-18.02L10.04-18.02L10.04-18.02Q11.28-18.72 12.68-18.72L12.68-18.72L12.68-18.72Q14.92-18.72 16.34-16.92L16.34-16.92L16.34-16.92Q17.76-15.12 17.76-12.20L17.76-12.20L17.76-12.20Q17.76-10.08 17.08-8.08L17.08-8.08L17.08-8.08Q16.40-6.08 15.20-4.44L15.20-4.44L15.20-4.44Q16.04-4.20 16.60-4.20L16.60-4.20L16.60-4.20Q17.92-4.20 19.12-5.16L19.12-5.16L19.12-5.16Q20.32-6.12 22.20-8.36L22.20-8.36L22.20-8.36Q22.68-8.92 23.28-8.92L23.28-8.92ZM7.44-3.64L7.44-3.64Q8.88-3.96 10.10-5.22L10.10-5.22L10.10-5.22Q11.32-6.48 12.04-8.34L12.04-8.34L12.04-8.34Q12.76-10.20 12.76-12.24L12.76-12.24L12.76-12.24Q12.76-13.44 12.28-14.06L12.28-14.06L12.28-14.06Q11.80-14.68 11-14.68L11-14.68L11-14.68Q9.56-14.68 7.52-11.64L7.52-11.64L7.52-11.64Q7.48-9.88 7.48-6.48L7.48-6.48L7.48-6.48Q7.48-4.64 7.44-3.64L7.44-3.64ZM-0.20 14.36L-0.20 14.36Q0.88 14.36 1.60 9.66L1.60 9.66L1.60 9.66Q2.32 4.96 2.52-2.04L2.52-2.04L2.52-2.04Q0.80 1.96-0.20 5.60L-0.20 5.60L-0.20 5.60Q-1.20 9.24-1.20 11.72L-1.20 11.72L-1.20 11.72Q-1.20 13-0.90 13.68L-0.90 13.68L-0.90 13.68Q-0.60 14.36-0.20 14.36L-0.20 14.36ZM36.32-8.92L36.32-8.92Q36.84-8.92 37.14-8.44L37.14-8.44L37.14-8.44Q37.44-7.96 37.44-7.12L37.44-7.12L37.44-7.12Q37.44-5.52 36.68-4.64L36.68-4.64L36.68-4.64Q34.96-2.52 32.94-1.16L32.94-1.16L32.94-1.16Q30.92 0.20 28.36 0.20L28.36 0.20L28.36 0.20Q24.84 0.20 23.14-3L23.14-3L23.14-3Q21.44-6.20 21.44-11.28L21.44-11.28L21.44-11.28Q21.44-16.16 22.70-22.40L22.70-22.40L22.70-22.40Q23.96-28.64 26.42-33.12L26.42-33.12L26.42-33.12Q28.88-37.60 32.28-37.60L32.28-37.60L32.28-37.60Q34.20-37.60 35.30-35.82L35.30-35.82L35.30-35.82Q36.40-34.04 36.40-30.72L36.40-30.72L36.40-30.72Q36.40-25.96 33.76-19.68L33.76-19.68L33.76-19.68Q31.12-13.40 26.60-7.24L26.60-7.24L26.60-7.24Q26.88-5.60 27.52-4.90L27.52-4.90L27.52-4.90Q28.16-4.20 29.20-4.20L29.20-4.20L29.20-4.20Q30.84-4.20 32.08-5.14L32.08-5.14L32.08-5.14Q33.32-6.08 35.24-8.36L35.24-8.36L35.24-8.36Q35.72-8.92 36.32-8.92L36.32-8.92ZM31.40-33.64L31.40-33.64Q30.48-33.64 29.32-30.32L29.32-30.32L29.32-30.32Q28.16-27 27.28-22.08L27.28-22.08L27.28-22.08Q26.40-17.16 26.32-12.64L26.32-12.64L26.32-12.64Q29.16-17.32 30.84-22.02L30.84-22.02L30.84-22.02Q32.52-26.72 32.52-30.60L32.52-30.60L32.52-30.60Q32.52-33.64 31.40-33.64L31.40-33.64ZM38.28 0.20L38.28 0.20Q36.48 0.20 35.34-1.46L35.34-1.46L35.34-1.46Q34.20-3.12 34.20-5.60L34.20-5.60L34.20-5.60Q34.20-8.60 34.60-11.10L34.60-11.10L34.60-11.10Q35-13.60 35.92-16.40L35.92-16.40L35.92-16.40Q36.32-17.60 37.04-18.12L37.04-18.12L37.04-18.12Q37.76-18.64 39.32-18.64L39.32-18.64L39.32-18.64Q40.20-18.64 40.54-18.36L40.54-18.36L40.54-18.36Q40.88-18.08 40.88-17.52L40.88-17.52L40.88-17.52Q40.88-17.20 40.44-15.36L40.44-15.36L40.44-15.36Q40.04-13.88 39.80-12.68L39.80-12.68L39.80-12.68Q39-8.48 39-7.08L39-7.08L39-7.08Q39-6.24 39.20-5.90L39.20-5.90L39.20-5.90Q39.40-5.56 39.84-5.56L39.84-5.56L39.84-5.56Q40.44-5.56 41.34-6.76L41.34-6.76L41.34-6.76Q42.24-7.96 43.26-10.40L43.26-10.40L43.26-10.40Q44.28-12.84 45.24-16.40L45.24-16.40L45.24-16.40Q45.56-17.60 46.22-18.12L46.22-18.12L46.22-18.12Q46.88-18.64 48.20-18.64L48.20-18.64L48.20-18.64Q49.12-18.64 49.48-18.42L49.48-18.42L49.48-18.42Q49.84-18.20 49.84-17.60L49.84-17.60L49.84-17.60Q49.84-16.60 48.84-12.12L48.84-12.12L48.84-12.12Q47.72-7 47.72-5.80L47.72-5.80L47.72-5.80Q47.72-5.04 48.04-4.62L48.04-4.62L48.04-4.62Q48.36-4.20 48.88-4.20L48.88-4.20L48.88-4.20Q49.68-4.20 50.78-5.18L50.78-5.18L50.78-5.18Q51.88-6.16 53.72-8.36L53.72-8.36L53.72-8.36Q54.20-8.92 54.80-8.92L54.80-8.92L54.80-8.92Q55.32-8.92 55.62-8.44L55.62-8.44L55.62-8.44Q55.92-7.96 55.92-7.12L55.92-7.12L55.92-7.12Q55.92-5.52 55.16-4.64L55.16-4.64L55.16-4.64Q53.44-2.52 51.46-1.16L51.46-1.16L51.46-1.16Q49.48 0.20 46.96 0.20L46.96 0.20L46.96 0.20Q45.04 0.20 44.14-1.28L44.14-1.28L44.14-1.28Q43.24-2.76 43.24-5.44L43.24-5.44L43.24-5.44Q42.56-2.72 41.20-1.26L41.20-1.26L41.20-1.26Q39.84 0.20 38.28 0.20L38.28 0.20ZM73.16-8.84L73.16-8.84Q73.68-8.84 73.98-8.34L73.98-8.34L73.98-8.34Q74.28-7.84 74.28-7.08L74.28-7.08L74.28-7.08Q74.28-6.16 74-5.64L74-5.64L74-5.64Q73.72-5.12 73.12-4.72L73.12-4.72L73.12-4.72Q69.68-2.40 68.08-1.28L68.08-1.28L65.52 0.44L65.52 0.44Q64 8.72 61.54 13.46L61.54 13.46L61.54 13.46Q59.08 18.20 55.28 18.20L55.28 18.20L55.28 18.20Q53.24 18.20 51.96 16.94L51.96 16.94L51.96 16.94Q50.68 15.68 50.68 13.64L50.68 13.64L50.68 13.64Q50.68 10.80 52.92 7.54L52.92 7.54L52.92 7.54Q55.16 4.28 61.32-0.48L61.32-0.48L61.56-2.04L61.56-2.04Q60.88-0.96 59.78-0.38L59.78-0.38L59.78-0.38Q58.68 0.20 57.60 0.20L57.60 0.20L57.60 0.20Q55.12 0.20 53.64-1.60L53.64-1.60L53.64-1.60Q52.16-3.40 52.16-6.32L52.16-6.32L52.16-6.32Q52.16-9.52 53.64-12.38L53.64-12.38L53.64-12.38Q55.12-15.24 57.58-16.98L57.58-16.98L57.58-16.98Q60.04-18.72 62.80-18.72L62.80-18.72L62.80-18.72Q63.68-18.72 63.98-18.38L63.98-18.38L63.98-18.38Q64.28-18.04 64.48-17.16L64.48-17.16L64.48-17.16Q65.24-17.32 66.24-17.32L66.24-17.32L66.24-17.32Q67.24-17.32 67.66-17.02L67.66-17.02L67.66-17.02Q68.08-16.72 68.08-15.84L68.08-15.84L68.08-15.84Q68.08-15.36 68.04-15.08L68.04-15.08L68.04-15.08Q67.88-13.84 67.04-8.80L67.04-8.80L67.04-8.80Q66.88-7.84 66.70-6.70L66.70-6.70L66.70-6.70Q66.52-5.56 66.32-4.28L66.32-4.28L66.32-4.28Q69.40-6.68 72.24-8.52L72.24-8.52L72.24-8.52Q72.76-8.84 73.16-8.84L73.16-8.84ZM59.04-3.84L59.04-3.84Q59.96-3.84 60.80-4.96L60.80-4.96L60.80-4.96Q61.64-6.08 62.00-8.16L62.00-8.16L63.28-15L63.28-15Q61.64-14.96 60.24-13.74L60.24-13.74L60.24-13.74Q58.84-12.52 58.00-10.52L58.00-10.52L58.00-10.52Q57.16-8.52 57.16-6.28L57.16-6.28L57.16-6.28Q57.16-5.04 57.66-4.44L57.66-4.44L57.66-4.44Q58.16-3.84 59.04-3.84L59.04-3.84ZM55.72 14.32L55.72 14.32Q56.72 14.32 57.98 11.92L57.98 11.92L57.98 11.92Q59.24 9.52 60.40 4.28L60.40 4.28L60.40 4.28Q57.32 6.92 55.96 9.04L55.96 9.04L55.96 9.04Q54.60 11.16 54.60 12.76L54.60 12.76L54.60 12.76Q54.60 13.44 54.86 13.88L54.86 13.88L54.86 13.88Q55.12 14.32 55.72 14.32L55.72 14.32ZM77.08-21.28L77.08-21.28Q75.40-21.28 74.56-22.06L74.56-22.06L74.56-22.06Q73.72-22.84 73.72-24.24L73.72-24.24L73.72-24.24Q73.72-25.64 74.82-26.58L74.82-26.58L74.82-26.58Q75.92-27.52 77.56-27.52L77.56-27.52L77.56-27.52Q79.04-27.52 79.96-26.80L79.96-26.80L79.96-26.80Q80.88-26.08 80.88-24.76L80.88-24.76L80.88-24.76Q80.88-23.16 79.84-22.22L79.84-22.22L79.84-22.22Q78.80-21.28 77.08-21.28L77.08-21.28ZM76.76 0.20L76.76 0.20Q74.16 0.20 72.98-1.64L72.98-1.64L72.98-1.64Q71.80-3.48 71.80-6.52L71.80-6.52L71.80-6.52Q71.80-8.32 72.26-11.14L72.26-11.14L72.26-11.14Q72.72-13.96 73.44-16.40L73.44-16.40L73.44-16.40Q73.80-17.68 74.40-18.16L74.40-18.16L74.40-18.16Q75-18.64 76.32-18.64L76.32-18.64L76.32-18.64Q78.36-18.64 78.36-17.28L78.36-17.28L78.36-17.28Q78.36-16.28 77.60-12.64L77.60-12.64L77.60-12.64Q76.64-8.24 76.64-6.68L76.64-6.68L76.64-6.68Q76.64-5.48 76.96-4.84L76.96-4.84L76.96-4.84Q77.28-4.20 78.04-4.20L78.04-4.20L78.04-4.20Q78.76-4.20 79.84-5.20L79.84-5.20L79.84-5.20Q80.92-6.20 82.72-8.36L82.72-8.36L82.72-8.36Q83.20-8.92 83.80-8.92L83.80-8.92L83.80-8.92Q84.32-8.92 84.62-8.44L84.62-8.44L84.62-8.44Q84.92-7.96 84.92-7.12L84.92-7.12L84.92-7.12Q84.92-5.52 84.16-4.64L84.16-4.64L84.16-4.64Q80.20 0.20 76.76 0.20L76.76 0.20ZM84.52 0.20L84.52 0.20Q83 0.20 82.38-1.40L82.38-1.40L82.38-1.40Q81.76-3 81.76-6.52L81.76-6.52L81.76-6.52Q81.76-11.72 83.24-16.40L83.24-16.40L83.24-16.40Q83.60-17.56 84.42-18.10L84.42-18.10L84.42-18.10Q85.24-18.64 86.72-18.64L86.72-18.64L86.72-18.64Q87.52-18.64 87.84-18.44L87.84-18.44L87.84-18.44Q88.16-18.24 88.16-17.68L88.16-17.68L88.16-17.68Q88.16-17.04 87.56-14.80L87.56-14.80L87.56-14.80Q87.16-13.20 86.92-12L86.92-12L86.92-12Q86.68-10.80 86.52-9.04L86.52-9.04L86.52-9.04Q87.84-12.48 89.48-14.64L89.48-14.64L89.48-14.64Q91.12-16.80 92.70-17.72L92.70-17.72L92.70-17.72Q94.28-18.64 95.60-18.64L95.60-18.64L95.60-18.64Q98.20-18.64 98.20-16.04L98.20-16.04L98.20-16.04Q98.20-14.48 97.32-10.40L97.32-10.40L97.32-10.40Q96.56-6.92 96.56-5.80L96.56-5.80L96.56-5.80Q96.56-4.20 97.72-4.20L97.72-4.20L97.72-4.20Q98.52-4.20 99.62-5.18L99.62-5.18L99.62-5.18Q100.72-6.16 102.56-8.36L102.56-8.36L102.56-8.36Q103.04-8.92 103.64-8.92L103.64-8.92L103.64-8.92Q104.16-8.92 104.46-8.44L104.46-8.44L104.46-8.44Q104.76-7.96 104.76-7.12L104.76-7.12L104.76-7.12Q104.76-5.52 104-4.64L104-4.64L104-4.64Q102.28-2.52 100.30-1.16L100.30-1.16L100.30-1.16Q98.32 0.20 95.80 0.20L95.80 0.20L95.80 0.20Q93.76 0.20 92.72-0.98L92.72-0.98L92.72-0.98Q91.68-2.16 91.68-4.40L91.68-4.40L91.68-4.40Q91.68-5.52 92.24-8.40L92.24-8.40L92.24-8.40Q92.76-10.92 92.76-11.88L92.76-11.88L92.76-11.88Q92.76-12.52 92.32-12.52L92.32-12.52L92.32-12.52Q91.80-12.52 90.86-11.18L90.86-11.18L90.86-11.18Q89.92-9.84 88.94-7.64L88.94-7.64L88.94-7.64Q87.96-5.44 87.36-3L87.36-3L87.36-3Q86.92-1.12 86.34-0.46L86.34-0.46L86.34-0.46Q85.76 0.20 84.52 0.20L84.52 0.20ZM108.96 1.08L108.96 1.08Q106.88 1.08 105.78 0.12L105.78 0.12L105.78 0.12Q104.68-0.84 104.68-2.04L104.68-2.04L104.68-2.04Q104.68-3.08 105.44-3.84L105.44-3.84L105.44-3.84Q106.20-4.60 107.68-4.60L107.68-4.60L107.68-4.60Q108.20-4.60 108.90-4.50L108.90-4.50L108.90-4.50Q109.60-4.40 109.96-4.36L109.96-4.36L109.96-4.36Q109.92-5.40 109.50-6.32L109.50-6.32L109.50-6.32Q109.08-7.24 108.44-8.10L108.44-8.10L108.44-8.10Q107.80-8.96 107.24-9.60L107.24-9.60L107.24-9.60Q106.00-7.24 104.78-5.68L104.78-5.68L104.78-5.68Q103.56-4.12 102.12-2.72L102.12-2.72L102.12-2.72Q101.40-2 100.60-2L100.60-2L100.60-2Q99.96-2 99.56-2.46L99.56-2.46L99.56-2.46Q99.16-2.92 99.16-3.60L99.16-3.60L99.16-3.60Q99.16-4.40 99.72-5.08L99.72-5.08L100.24-5.72L100.24-5.72Q102.44-8.44 103.56-10.20L103.56-10.20L103.56-10.20Q104.24-11.36 105.16-13.30L105.16-13.30L105.16-13.30Q106.08-15.24 106.96-17.32L106.96-17.32L106.96-17.32Q107.72-19.08 110.12-19.08L110.12-19.08L110.12-19.08Q111.24-19.08 111.68-18.88L111.68-18.88L111.68-18.88Q112.12-18.68 112.12-18.24L112.12-18.24L112.12-18.24Q112.12-18 111.96-17.48L111.96-17.48L111.96-17.48Q111.80-16.96 111.52-16.44L111.52-16.44L111.52-16.44Q110.80-15 110.80-14L110.80-14L110.80-14Q110.80-13.40 111.22-12.68L111.22-12.68L111.22-12.68Q111.64-11.96 112.52-10.88L112.52-10.88L112.52-10.88Q113.80-9.20 114.46-8.02L114.46-8.02L114.46-8.02Q115.12-6.84 115.12-5.44L115.12-5.44L115.12-5.44Q115.12-5.04 115.04-4.32L115.04-4.32L115.04-4.32Q117.00-5.08 119.64-8.36L119.64-8.36L119.64-8.36Q120.12-8.92 120.72-8.92L120.72-8.92L120.72-8.92Q121.24-8.92 121.54-8.44L121.54-8.44L121.54-8.44Q121.84-7.96 121.84-7.12L121.84-7.12L121.84-7.12Q121.84-5.60 121.08-4.64L121.08-4.64L121.08-4.64Q119.08-2.16 117.26-1.26L117.26-1.26L117.26-1.26Q115.44-0.36 112.76-0.28L112.76-0.28L112.76-0.28Q111.16 1.08 108.96 1.08L108.96 1.08Z" fill="#ca0b0b"></path></g></g><style>text {
  font-size: 64px;
  font-family: Arial Black;
  dominant-baseline: central;
  text-anchor: middle;
}</style></svg>