<svg width="406.5489013671875px" height="247.0407470703125px" xmlns="http://www.w3.org/2000/svg" viewBox="46.725549316406244 -48.52037353515625 406.5489013671875 247.0407470703125" style="background: rgba(0, 0, 0, 0);" preserveAspectRatio="xMidYMid"><defs><filter id="editing-extrude-glow"><feFlood flood-color="#ffffff" result="flood-1"></feFlood><feMorphology operator="erode" radius="1" in="SourceAlpha" result="erode"></feMorphology><feComposite operator="in" in="flood-1" in2="erode" result="comp1"></feComposite><feConvolveMatrix order="0,0" divisor="1" in="comp1" result="convolve" kernelMatrix=""></feConvolveMatrix><feOffset dx="0" dy="0" in="convolve" result="extrude"></feOffset><feComposite operator="in" in="flood-1" in2="extrude" result="comp-extrude"></feComposite><feFlood flood-color="#ffffff" result="flood-2"></feFlood><feComposite operator="in" in="flood-2" in2="SourceAlpha" result="comp2"></feComposite><feMorphology operator="dilate" radius="1" in="comp2" result="dilate"></feMorphology><feOffset dx="0" dy="0" in="dilate" result="offset"></feOffset><feGaussianBlur in="offset" stdDeviation="5.8" result="blur"></feGaussianBlur><feComponentTransfer in="blur" result="shadow"><feFuncA type="linear" slope="0.8" intercept="-0.2"></feFuncA></feComponentTransfer><feMerge><feMergeNode in="shadow"></feMergeNode><feMergeNode in="comp-extrude"></feMergeNode><feMergeNode in="SourceGraphic"></feMergeNode></feMerge></filter></defs><g filter="url(#editing-extrude-glow)"><g transform="translate(105.31283283233643, 141.44351387023926)"><path d="M55.29-21.18L55.29-21.18Q56.52-21.18 57.24-20.05L57.24-20.05L57.24-20.05Q57.95-18.91 57.95-16.91L57.95-16.91L57.95-16.91Q57.95-13.11 56.15-11.02L56.15-11.02L56.15-11.02Q52.06-5.99 47.36-2.75L47.36-2.75L47.36-2.75Q42.66 0.47 36.67 0.47L36.67 0.47L36.67 0.47Q31.64 0.47 28.50-3.14L28.50-3.14L28.50-3.14Q23.09 0.38 17.20 0.47L17.20 0.47L17.20 0.47Q15.96 18.81 11.59 31.11L11.59 31.11L11.59 31.11Q7.22 43.41-1.24 43.41L-1.24 43.41L-1.24 43.41Q-6.37 43.41-8.84 39.71L-8.84 39.71L-8.84 39.71Q-11.30 36.01-11.30 29.45L-11.30 29.45L-11.30 29.45Q-11.30 20.14-7.03 7.74L-7.03 7.74L-7.03 7.74Q-2.75-4.66 6.17-19.57L6.17-19.57L6.17-19.57Q6.17-33.44 5.99-38.86L5.99-38.86L5.99-38.86Q5.89-41.61 8.17-43.23L8.17-43.23L8.17-43.23Q10.45-44.84 13.87-44.84L13.87-44.84L13.87-44.84Q15.87-44.84 16.77-44.03L16.77-44.03L16.77-44.03Q17.67-43.23 17.77-40.85L17.77-40.85L17.77-40.85Q17.77-38.48 17.86-37.34L17.86-37.34L17.86-37.34Q20.90-41.13 23.84-42.80L23.84-42.80L23.84-42.80Q26.79-44.46 30.12-44.46L30.12-44.46L30.12-44.46Q35.44-44.46 38.81-40.19L38.81-40.19L38.81-40.19Q42.18-35.91 42.18-28.98L42.18-28.98L42.18-28.98Q42.18-23.94 40.56-19.19L40.56-19.19L40.56-19.19Q38.95-14.44 36.10-10.54L36.10-10.54L36.10-10.54Q38.09-9.97 39.42-9.97L39.42-9.97L39.42-9.97Q42.56-9.97 45.41-12.26L45.41-12.26L45.41-12.26Q48.26-14.54 52.73-19.86L52.73-19.86L52.73-19.86Q53.87-21.18 55.29-21.18L55.29-21.18ZM17.67-8.64L17.67-8.64Q21.09-9.40 23.99-12.40L23.99-12.40L23.99-12.40Q26.89-15.39 28.59-19.81L28.59-19.81L28.59-19.81Q30.30-24.23 30.30-29.07L30.30-29.07L30.30-29.07Q30.30-31.92 29.16-33.39L29.16-33.39L29.16-33.39Q28.02-34.87 26.13-34.87L26.13-34.87L26.13-34.87Q22.71-34.87 17.86-27.64L17.86-27.64L17.86-27.64Q17.77-23.46 17.77-15.39L17.77-15.39L17.77-15.39Q17.77-11.02 17.67-8.64L17.67-8.64ZM-0.47 34.10L-0.47 34.10Q2.09 34.10 3.80 22.94L3.80 22.94L3.80 22.94Q5.51 11.78 5.99-4.84L5.99-4.84L5.99-4.84Q1.90 4.66-0.47 13.30L-0.47 13.30L-0.47 13.30Q-2.85 21.95-2.85 27.84L-2.85 27.84L-2.85 27.84Q-2.85 30.88-2.14 32.49L-2.14 32.49L-2.14 32.49Q-1.43 34.10-0.47 34.10L-0.47 34.10ZM86.26-21.18L86.26-21.18Q87.50-21.18 88.21-20.05L88.21-20.05L88.21-20.05Q88.92-18.91 88.92-16.91L88.92-16.91L88.92-16.91Q88.92-13.11 87.12-11.02L87.12-11.02L87.12-11.02Q83.03-5.99 78.23-2.75L78.23-2.75L78.23-2.75Q73.44 0.47 67.36 0.47L67.36 0.47L67.36 0.47Q59.00 0.47 54.96-7.13L54.96-7.13L54.96-7.13Q50.92-14.72 50.92-26.79L50.92-26.79L50.92-26.79Q50.92-38.38 53.91-53.20L53.91-53.20L53.91-53.20Q56.91-68.02 62.75-78.66L62.75-78.66L62.75-78.66Q68.59-89.30 76.66-89.30L76.66-89.30L76.66-89.30Q81.22-89.30 83.84-85.07L83.84-85.07L83.84-85.07Q86.45-80.84 86.45-72.96L86.45-72.96L86.45-72.96Q86.45-61.66 80.18-46.74L80.18-46.74L80.18-46.74Q73.91-31.82 63.17-17.20L63.17-17.20L63.17-17.20Q63.84-13.30 65.36-11.64L65.36-11.64L65.36-11.64Q66.88-9.97 69.35-9.97L69.35-9.97L69.35-9.97Q73.25-9.97 76.19-12.21L76.19-12.21L76.19-12.21Q79.13-14.44 83.69-19.86L83.69-19.86L83.69-19.86Q84.84-21.18 86.26-21.18L86.26-21.18ZM74.58-79.89L74.58-79.89Q72.39-79.89 69.64-72.01L69.64-72.01L69.64-72.01Q66.88-64.13 64.79-52.44L64.79-52.44L64.79-52.44Q62.70-40.76 62.51-30.02L62.51-30.02L62.51-30.02Q69.25-41.13 73.25-52.30L73.25-52.30L73.25-52.30Q77.23-63.46 77.23-72.67L77.23-72.67L77.23-72.67Q77.23-79.89 74.58-79.89L74.58-79.89ZM90.91 0.47L90.91 0.47Q86.64 0.47 83.93-3.47L83.93-3.47L83.93-3.47Q81.22-7.41 81.22-13.30L81.22-13.30L81.22-13.30Q81.22-20.43 82.17-26.36L82.17-26.36L82.17-26.36Q83.12-32.30 85.31-38.95L85.31-38.95L85.31-38.95Q86.26-41.80 87.97-43.04L87.97-43.04L87.97-43.04Q89.68-44.27 93.38-44.27L93.38-44.27L93.38-44.27Q95.47-44.27 96.28-43.61L96.28-43.61L96.28-43.61Q97.09-42.94 97.09-41.61L97.09-41.61L97.09-41.61Q97.09-40.85 96.04-36.48L96.04-36.48L96.04-36.48Q95.09-32.97 94.52-30.12L94.52-30.12L94.52-30.12Q92.63-20.14 92.63-16.82L92.63-16.82L92.63-16.82Q92.63-14.82 93.10-14.01L93.10-14.01L93.10-14.01Q93.57-13.21 94.62-13.21L94.62-13.21L94.62-13.21Q96.04-13.21 98.18-16.05L98.18-16.05L98.18-16.05Q100.32-18.91 102.74-24.70L102.74-24.70L102.74-24.70Q105.16-30.50 107.44-38.95L107.44-38.95L107.44-38.95Q108.20-41.80 109.77-43.04L109.77-43.04L109.77-43.04Q111.34-44.27 114.47-44.27L114.47-44.27L114.47-44.27Q116.66-44.27 117.51-43.75L117.51-43.75L117.51-43.75Q118.37-43.23 118.37-41.80L118.37-41.80L118.37-41.80Q118.37-39.42 115.99-28.79L115.99-28.79L115.99-28.79Q113.33-16.63 113.33-13.78L113.33-13.78L113.33-13.78Q113.33-11.97 114.09-10.97L114.09-10.97L114.09-10.97Q114.85-9.97 116.09-9.97L116.09-9.97L116.09-9.97Q117.99-9.97 120.60-12.30L120.60-12.30L120.60-12.30Q123.21-14.63 127.58-19.86L127.58-19.86L127.58-19.86Q128.72-21.18 130.15-21.18L130.15-21.18L130.15-21.18Q131.38-21.18 132.10-20.05L132.10-20.05L132.10-20.05Q132.81-18.91 132.81-16.91L132.81-16.91L132.81-16.91Q132.81-13.11 131.00-11.02L131.00-11.02L131.00-11.02Q126.92-5.99 122.22-2.75L122.22-2.75L122.22-2.75Q117.51 0.47 111.53 0.47L111.53 0.47L111.53 0.47Q106.97 0.47 104.83-3.04L104.83-3.04L104.83-3.04Q102.69-6.55 102.69-12.92L102.69-12.92L102.69-12.92Q101.08-6.46 97.85-2.99L97.85-2.99L97.85-2.99Q94.62 0.47 90.91 0.47L90.91 0.47ZM173.75-21.00L173.75-21.00Q174.99-21.00 175.70-19.81L175.70-19.81L175.70-19.81Q176.41-18.62 176.41-16.82L176.41-16.82L176.41-16.82Q176.41-14.63 175.75-13.39L175.75-13.39L175.75-13.39Q175.08-12.16 173.66-11.21L173.66-11.21L173.66-11.21Q165.49-5.70 161.69-3.04L161.69-3.04L155.61 1.04L155.61 1.04Q152 20.71 146.16 31.97L146.16 31.97L146.16 31.97Q140.31 43.23 131.29 43.23L131.29 43.23L131.29 43.23Q126.44 43.23 123.40 40.23L123.40 40.23L123.40 40.23Q120.36 37.24 120.36 32.40L120.36 32.40L120.36 32.40Q120.36 25.65 125.68 17.91L125.68 17.91L125.68 17.91Q131.00 10.17 145.63-1.14L145.63-1.14L146.20-4.84L146.20-4.84Q144.59-2.28 141.98-0.90L141.98-0.90L141.98-0.90Q139.36 0.47 136.80 0.47L136.80 0.47L136.80 0.47Q130.91 0.47 127.39-3.80L127.39-3.80L127.39-3.80Q123.88-8.07 123.88-15.01L123.88-15.01L123.88-15.01Q123.88-22.61 127.39-29.40L127.39-29.40L127.39-29.40Q130.91-36.20 136.75-40.33L136.75-40.33L136.75-40.33Q142.59-44.46 149.15-44.46L149.15-44.46L149.15-44.46Q151.24-44.46 151.95-43.65L151.95-43.65L151.95-43.65Q152.66-42.84 153.14-40.76L153.14-40.76L153.14-40.76Q154.94-41.13 157.32-41.13L157.32-41.13L157.32-41.13Q159.69-41.13 160.69-40.42L160.69-40.42L160.69-40.42Q161.69-39.71 161.69-37.62L161.69-37.62L161.69-37.62Q161.69-36.48 161.59-35.81L161.59-35.81L161.59-35.81Q161.22-32.87 159.22-20.90L159.22-20.90L159.22-20.90Q158.84-18.62 158.41-15.91L158.41-15.91L158.41-15.91Q157.98-13.21 157.51-10.17L157.51-10.17L157.51-10.17Q164.82-15.87 171.57-20.23L171.57-20.23L171.57-20.23Q172.81-21.00 173.75-21.00L173.75-21.00ZM140.22-9.12L140.22-9.12Q142.41-9.12 144.40-11.78L144.40-11.78L144.40-11.78Q146.39-14.44 147.25-19.38L147.25-19.38L150.29-35.63L150.29-35.63Q146.39-35.53 143.07-32.63L143.07-32.63L143.07-32.63Q139.75-29.73 137.75-24.98L137.75-24.98L137.75-24.98Q135.75-20.23 135.75-14.92L135.75-14.92L135.75-14.92Q135.75-11.97 136.94-10.54L136.94-10.54L136.94-10.54Q138.13-9.12 140.22-9.12L140.22-9.12ZM132.33 34.01L132.33 34.01Q134.71 34.01 137.70 28.31L137.70 28.31L137.70 28.31Q140.69 22.61 143.45 10.17L143.45 10.17L143.45 10.17Q136.13 16.43 132.91 21.47L132.91 21.47L132.91 21.47Q129.67 26.50 129.67 30.30L129.67 30.30L129.67 30.30Q129.67 31.92 130.29 32.97L130.29 32.97L130.29 32.97Q130.91 34.01 132.33 34.01L132.33 34.01ZM183.06-50.54L183.06-50.54Q179.07-50.54 177.08-52.39L177.08-52.39L177.08-52.39Q175.09-54.24 175.09-57.57L175.09-57.57L175.09-57.57Q175.09-60.90 177.70-63.13L177.70-63.13L177.70-63.13Q180.31-65.36 184.21-65.36L184.21-65.36L184.21-65.36Q187.72-65.36 189.91-63.65L189.91-63.65L189.91-63.65Q192.09-61.94 192.09-58.80L192.09-58.80L192.09-58.80Q192.09-55.01 189.62-52.77L189.62-52.77L189.62-52.77Q187.15-50.54 183.06-50.54L183.06-50.54ZM182.31 0.47L182.31 0.47Q176.13 0.47 173.33-3.90L173.33-3.90L173.33-3.90Q170.53-8.27 170.53-15.48L170.53-15.48L170.53-15.48Q170.53-19.76 171.62-26.46L171.62-26.46L171.62-26.46Q172.71-33.16 174.42-38.95L174.42-38.95L174.42-38.95Q175.28-41.99 176.70-43.13L176.70-43.13L176.70-43.13Q178.13-44.27 181.26-44.27L181.26-44.27L181.26-44.27Q186.11-44.27 186.11-41.04L186.11-41.04L186.11-41.04Q186.11-38.66 184.30-30.02L184.30-30.02L184.30-30.02Q182.02-19.57 182.02-15.87L182.02-15.87L182.02-15.87Q182.02-13.02 182.78-11.50L182.78-11.50L182.78-11.50Q183.54-9.97 185.34-9.97L185.34-9.97L185.34-9.97Q187.06-9.97 189.62-12.35L189.62-12.35L189.62-12.35Q192.19-14.72 196.46-19.86L196.46-19.86L196.46-19.86Q197.60-21.18 199.03-21.18L199.03-21.18L199.03-21.18Q200.26-21.18 200.97-20.05L200.97-20.05L200.97-20.05Q201.69-18.91 201.69-16.91L201.69-16.91L201.69-16.91Q201.69-13.11 199.88-11.02L199.88-11.02L199.88-11.02Q190.47 0.47 182.31 0.47L182.31 0.47ZM200.74 0.47L200.74 0.47Q197.13 0.47 195.65-3.33L195.65-3.33L195.65-3.33Q194.18-7.13 194.18-15.48L194.18-15.48L194.18-15.48Q194.18-27.84 197.69-38.95L197.69-38.95L197.69-38.95Q198.55-41.70 200.50-42.99L200.50-42.99L200.50-42.99Q202.44-44.27 205.96-44.27L205.96-44.27L205.96-44.27Q207.86-44.27 208.62-43.80L208.62-43.80L208.62-43.80Q209.38-43.32 209.38-41.99L209.38-41.99L209.38-41.99Q209.38-40.47 207.96-35.15L207.96-35.15L207.96-35.15Q207.00-31.35 206.44-28.50L206.44-28.50L206.44-28.50Q205.87-25.65 205.49-21.47L205.49-21.47L205.49-21.47Q208.62-29.64 212.52-34.77L212.52-34.77L212.52-34.77Q216.41-39.90 220.16-42.09L220.16-42.09L220.16-42.09Q223.92-44.27 227.05-44.27L227.05-44.27L227.05-44.27Q233.23-44.27 233.23-38.09L233.23-38.09L233.23-38.09Q233.23-34.39 231.13-24.70L231.13-24.70L231.13-24.70Q229.33-16.43 229.33-13.78L229.33-13.78L229.33-13.78Q229.33-9.97 232.09-9.97L232.09-9.97L232.09-9.97Q233.99-9.97 236.60-12.30L236.60-12.30L236.60-12.30Q239.21-14.63 243.58-19.86L243.58-19.86L243.58-19.86Q244.72-21.18 246.15-21.18L246.15-21.18L246.15-21.18Q247.38-21.18 248.09-20.05L248.09-20.05L248.09-20.05Q248.81-18.91 248.81-16.91L248.81-16.91L248.81-16.91Q248.81-13.11 247-11.02L247-11.02L247-11.02Q242.92-5.99 238.21-2.75L238.21-2.75L238.21-2.75Q233.51 0.47 227.53 0.47L227.53 0.47L227.53 0.47Q222.68 0.47 220.21-2.33L220.21-2.33L220.21-2.33Q217.74-5.13 217.74-10.45L217.74-10.45L217.74-10.45Q217.74-13.11 219.07-19.95L219.07-19.95L219.07-19.95Q220.31-25.93 220.31-28.21L220.31-28.21L220.31-28.21Q220.31-29.73 219.26-29.73L219.26-29.73L219.26-29.73Q218.03-29.73 215.79-26.55L215.79-26.55L215.79-26.55Q213.56-23.37 211.23-18.14L211.23-18.14L211.23-18.14Q208.91-12.92 207.48-7.13L207.48-7.13L207.48-7.13Q206.44-2.66 205.06-1.09L205.06-1.09L205.06-1.09Q203.68 0.47 200.74 0.47L200.74 0.47ZM258.78 2.56L258.78 2.56Q253.84 2.56 251.23 0.29L251.23 0.29L251.23 0.29Q248.62-2.00 248.62-4.84L248.62-4.84L248.62-4.84Q248.62-7.32 250.42-9.12L250.42-9.12L250.42-9.12Q252.23-10.93 255.74-10.93L255.74-10.93L255.74-10.93Q256.98-10.93 258.64-10.69L258.64-10.69L258.64-10.69Q260.30-10.45 261.16-10.36L261.16-10.36L261.16-10.36Q261.06-12.82 260.06-15.01L260.06-15.01L260.06-15.01Q259.06-17.20 257.55-19.24L257.55-19.24L257.55-19.24Q256.03-21.28 254.70-22.80L254.70-22.80L254.70-22.80Q251.75-17.20 248.85-13.49L248.85-13.49L248.85-13.49Q245.96-9.79 242.54-6.46L242.54-6.46L242.54-6.46Q240.83-4.75 238.93-4.75L238.93-4.75L238.93-4.75Q237.41-4.75 236.46-5.84L236.46-5.84L236.46-5.84Q235.51-6.94 235.51-8.55L235.51-8.55L235.51-8.55Q235.51-10.45 236.84-12.06L236.84-12.06L238.07-13.59L238.07-13.59Q243.30-20.05 245.96-24.23L245.96-24.23L245.96-24.23Q247.57-26.98 249.76-31.59L249.76-31.59L249.76-31.59Q251.94-36.20 254.03-41.13L254.03-41.13L254.03-41.13Q255.84-45.31 261.54-45.31L261.54-45.31L261.54-45.31Q264.19-45.31 265.24-44.84L265.24-44.84L265.24-44.84Q266.29-44.37 266.29-43.32L266.29-43.32L266.29-43.32Q266.29-42.75 265.91-41.52L265.91-41.52L265.91-41.52Q265.53-40.28 264.86-39.05L264.86-39.05L264.86-39.05Q263.15-35.63 263.15-33.25L263.15-33.25L263.15-33.25Q263.15-31.82 264.15-30.12L264.15-30.12L264.15-30.12Q265.14-28.41 267.24-25.84L267.24-25.84L267.24-25.84Q270.28-21.85 271.84-19.05L271.84-19.05L271.84-19.05Q273.41-16.25 273.41-12.92L273.41-12.92L273.41-12.92Q273.41-11.97 273.22-10.26L273.22-10.26L273.22-10.26Q277.88-12.06 284.14-19.86L284.14-19.86L284.14-19.86Q285.29-21.18 286.71-21.18L286.71-21.18L286.71-21.18Q287.94-21.18 288.66-20.05L288.66-20.05L288.66-20.05Q289.37-18.91 289.37-16.91L289.37-16.91L289.37-16.91Q289.37-13.30 287.56-11.02L287.56-11.02L287.56-11.02Q282.81-5.13 278.49-2.99L278.49-2.99L278.49-2.99Q274.17-0.85 267.81-0.67L267.81-0.67L267.81-0.67Q264.00 2.56 258.78 2.56L258.78 2.56Z" fill="#f02a2a"></path></g></g><style>text {
  font-size: 64px;
  font-family: Arial Black;
  dominant-baseline: central;
  text-anchor: middle;
}</style></svg>