<?xml version="1.0" encoding="UTF-8" standalone="no" ?>
<!DOCTYPE svg PUBLIC "-//W3C//DTD SVG 1.1//EN" "http://www.w3.org/Graphics/SVG/1.1/DTD/svg11.dtd">
<svg xmlns="http://www.w3.org/2000/svg" xmlns:xlink="http://www.w3.org/1999/xlink" version="1.1" width="1080" height="1080" viewBox="0 0 1080 1080" xml:space="preserve">
<desc>Created with Fabric.js 5.2.4</desc>
<defs>
</defs>
<rect x="0" y="0" width="100%" height="100%" fill="transparent"></rect>
<g transform="matrix(1 0 0 1 540 540)" id="ba23faa6-f8d9-46a7-9e96-ff325b2b7224"  >
<rect style="stroke: none; stroke-width: 1; stroke-dasharray: none; stroke-linecap: butt; stroke-dashoffset: 0; stroke-linejoin: miter; stroke-miterlimit: 4; fill: rgb(255,255,255); fill-rule: nonzero; opacity: 1; visibility: hidden;" vector-effect="non-scaling-stroke"  x="-540" y="-540" rx="0" ry="0" width="1080" height="1080" />
</g>
<g transform="matrix(1 0 0 1 540 540)" id="5a92aaa1-b1ab-4269-bd61-2a10e573bbe0"  >
</g>
<g transform="matrix(1.09 0 0 1.09 537.42 529.21)" id="9510bb2f-a567-4944-9810-1a2b32be5e58"  >
<path style="stroke: rgb(0,0,0); stroke-width: 0; stroke-dasharray: none; stroke-linecap: butt; stroke-dashoffset: 0; stroke-linejoin: miter; stroke-miterlimit: 4; fill: rgb(162,108,235); fill-rule: nonzero; opacity: 1;" vector-effect="non-scaling-stroke"  transform=" translate(-457.2, 23.1)" d="M 116.4 -44.6 L 116.4 -44.6 Q 119 -44.6 120.5 -42.2 L 120.5 -42.2 L 120.5 -42.2 Q 122 -39.8 122 -35.6 L 122 -35.6 L 122 -35.6 Q 122 -27.6 118.2 -23.2 L 118.2 -23.2 L 118.2 -23.2 Q 109.6 -12.6 99.7 -5.8 L 99.7 -5.8 L 99.7 -5.8 Q 89.8 1 77.2 1 L 77.2 1 L 77.2 1 Q 66.6 1 60 -6.6 L 60 -6.6 L 60 -6.6 Q 48.6 0.8 36.2 1 L 36.2 1 L 36.2 1 Q 33.6 39.6 24.4 65.5 L 24.4 65.5 L 24.4 65.5 Q 15.2 91.4 -2.6 91.4 L -2.6 91.4 L -2.6 91.4 Q -13.4 91.4 -18.6 83.6 L -18.6 83.6 L -18.6 83.6 Q -23.8 75.8 -23.8 62 L -23.8 62 L -23.8 62 Q -23.8 42.4 -14.8 16.3 L -14.8 16.3 L -14.8 16.3 Q -5.8 -9.8 13 -41.2 L 13 -41.2 L 13 -41.2 Q 13 -70.4 12.6 -81.8 L 12.6 -81.8 L 12.6 -81.8 Q 12.4 -87.6 17.2 -91 L 17.2 -91 L 17.2 -91 Q 22 -94.4 29.2 -94.4 L 29.2 -94.4 L 29.2 -94.4 Q 33.4 -94.4 35.3 -92.7 L 35.3 -92.7 L 35.3 -92.7 Q 37.2 -91 37.4 -86 L 37.4 -86 L 37.4 -86 Q 37.4 -81 37.6 -78.6 L 37.6 -78.6 L 37.6 -78.6 Q 44 -86.6 50.2 -90.1 L 50.2 -90.1 L 50.2 -90.1 Q 56.4 -93.6 63.4 -93.6 L 63.4 -93.6 L 63.4 -93.6 Q 74.6 -93.6 81.7 -84.6 L 81.7 -84.6 L 81.7 -84.6 Q 88.8 -75.6 88.8 -61 L 88.8 -61 L 88.8 -61 Q 88.8 -50.4 85.4 -40.4 L 85.4 -40.4 L 85.4 -40.4 Q 82 -30.4 76 -22.2 L 76 -22.2 L 76 -22.2 Q 80.2 -21 83 -21 L 83 -21 L 83 -21 Q 89.6 -21 95.6 -25.8 L 95.6 -25.8 L 95.6 -25.8 Q 101.6 -30.6 111 -41.8 L 111 -41.8 L 111 -41.8 Q 113.4 -44.6 116.4 -44.6 L 116.4 -44.6 Z M 37.2 -18.2 L 37.2 -18.2 Q 44.4 -19.8 50.5 -26.1 L 50.5 -26.1 L 50.5 -26.1 Q 56.6 -32.4 60.2 -41.7 L 60.2 -41.7 L 60.2 -41.7 Q 63.8 -51 63.8 -61.2 L 63.8 -61.2 L 63.8 -61.2 Q 63.8 -67.2 61.4 -70.3 L 61.4 -70.3 L 61.4 -70.3 Q 59 -73.4 55 -73.4 L 55 -73.4 L 55 -73.4 Q 47.8 -73.4 37.6 -58.2 L 37.6 -58.2 L 37.6 -58.2 Q 37.4 -49.4 37.4 -32.4 L 37.4 -32.4 L 37.4 -32.4 Q 37.4 -23.2 37.2 -18.2 L 37.2 -18.2 Z M -1 71.8 L -1 71.8 Q 4.4 71.8 8 48.3 L 8 48.3 L 8 48.3 Q 11.6 24.8 12.6 -10.2 L 12.6 -10.2 L 12.6 -10.2 Q 4 9.8 -1 28 L -1 28 L -1 28 Q -6 46.2 -6 58.6 L -6 58.6 L -6 58.6 Q -6 65 -4.5 68.4 L -4.5 68.4 L -4.5 68.4 Q -3 71.8 -1 71.8 L -1 71.8 Z M 120 1 L 120 1 Q 112.4 1 109.3 -7 L 109.3 -7 L 109.3 -7 Q 106.2 -15 106.2 -32.6 L 106.2 -32.6 L 106.2 -32.6 Q 106.2 -58.6 113.6 -82 L 113.6 -82 L 113.6 -82 Q 115.4 -87.8 119.5 -90.5 L 119.5 -90.5 L 119.5 -90.5 Q 123.6 -93.2 131 -93.2 L 131 -93.2 L 131 -93.2 Q 135 -93.2 136.6 -92.2 L 136.6 -92.2 L 136.6 -92.2 Q 138.2 -91.2 138.2 -88.4 L 138.2 -88.4 L 138.2 -88.4 Q 138.2 -85.2 135.2 -74 L 135.2 -74 L 135.2 -74 Q 133.2 -66 132 -60 L 132 -60 L 132 -60 Q 130.8 -54 130 -45.2 L 130 -45.2 L 130 -45.2 Q 136.6 -62.4 144.8 -73.2 L 144.8 -73.2 L 144.8 -73.2 Q 153 -84 160.9 -88.6 L 160.9 -88.6 L 160.9 -88.6 Q 168.8 -93.2 175.4 -93.2 L 175.4 -93.2 L 175.4 -93.2 Q 188.4 -93.2 188.4 -80.2 L 188.4 -80.2 L 188.4 -80.2 Q 188.4 -77.6 186.6 -67.6 L 186.6 -67.6 L 186.6 -67.6 Q 185 -59.6 185 -57.6 L 185 -57.6 L 185 -57.6 Q 185 -50.6 190 -50.6 L 190 -50.6 L 190 -50.6 Q 195.6 -50.6 204.4 -59.4 L 204.4 -59.4 L 204.4 -59.4 Q 207 -62 209.8 -62 L 209.8 -62 L 209.8 -62 Q 212.4 -62 213.9 -59.7 L 213.9 -59.7 L 213.9 -59.7 Q 215.4 -57.4 215.4 -53.6 L 215.4 -53.6 L 215.4 -53.6 Q 215.4 -46.2 211.4 -42 L 211.4 -42 L 211.4 -42 Q 205.8 -36.2 198.3 -32.1 L 198.3 -32.1 L 198.3 -32.1 Q 190.8 -28 182.4 -28 L 182.4 -28 L 182.4 -28 Q 171.8 -28 166.3 -33.4 L 166.3 -33.4 L 166.3 -33.4 Q 160.8 -38.8 160.8 -48 L 160.8 -48 L 160.8 -48 Q 160.8 -51 161.4 -54 L 161.4 -54 L 161.4 -54 Q 161.8 -58 161.8 -59.4 L 161.8 -59.4 L 161.8 -59.4 Q 161.8 -62.6 159.6 -62.6 L 159.6 -62.6 L 159.6 -62.6 Q 156.6 -62.6 151.7 -55.9 L 151.7 -55.9 L 151.7 -55.9 Q 146.8 -49.2 142 -38.2 L 142 -38.2 L 142 -38.2 Q 137.2 -27.2 134.2 -15 L 134.2 -15 L 134.2 -15 Q 132 -5.6 129.1 -2.3 L 129.1 -2.3 L 129.1 -2.3 Q 126.2 1 120 1 L 120 1 Z M 298.8 -61.4 L 298.8 -61.4 Q 301.4 -61.4 302.8 -58.8 L 302.8 -58.8 L 302.8 -58.8 Q 304.2 -56.2 304.2 -52.2 L 304.2 -52.2 L 304.2 -52.2 Q 304.2 -42.6 298.4 -40.8 L 298.4 -40.8 L 298.4 -40.8 Q 286.4 -36.6 272 -36 L 272 -36 L 272 -36 Q 268.2 -19.2 257 -9.1 L 257 -9.1 L 257 -9.1 Q 245.8 1 231.6 1 L 231.6 1 L 231.6 1 Q 219.6 1 211.1 -4.8 L 211.1 -4.8 L 211.1 -4.8 Q 202.6 -10.6 198.2 -20.2 L 198.2 -20.2 L 198.2 -20.2 Q 193.8 -29.8 193.8 -41 L 193.8 -41 L 193.8 -41 Q 193.8 -56.2 199.6 -68.1 L 199.6 -68.1 L 199.6 -68.1 Q 205.4 -80 215.6 -86.7 L 215.6 -86.7 L 215.6 -86.7 Q 225.8 -93.4 238.2 -93.4 L 238.2 -93.4 L 238.2 -93.4 Q 253.4 -93.4 262.7 -82.9 L 262.7 -82.9 L 262.7 -82.9 Q 272 -72.4 273.6 -57 L 273.6 -57 L 273.6 -57 Q 283 -57.6 296 -61 L 296 -61 L 296 -61 Q 297.6 -61.4 298.8 -61.4 L 298.8 -61.4 Z M 233.2 -20.2 L 233.2 -20.2 Q 239.6 -20.2 244.3 -25.4 L 244.3 -25.4 L 244.3 -25.4 Q 249 -30.6 250.6 -40.4 L 250.6 -40.4 L 250.6 -40.4 Q 244.4 -44.6 241.1 -51.4 L 241.1 -51.4 L 241.1 -51.4 Q 237.8 -58.2 237.8 -65.8 L 237.8 -65.8 L 237.8 -65.8 Q 237.8 -69 238.4 -72.2 L 238.4 -72.2 L 237.4 -72.2 L 237.4 -72.2 Q 229.4 -72.2 224.1 -64.5 L 224.1 -64.5 L 224.1 -64.5 Q 218.8 -56.8 218.8 -42.8 L 218.8 -42.8 L 218.8 -42.8 Q 218.8 -31.8 223.1 -26 L 223.1 -26 L 223.1 -26 Q 227.4 -20.2 233.2 -20.2 L 233.2 -20.2 Z M 386 -60.8 L 386 -60.8 Q 386.6 -61 388 -61 L 388 -61 L 388 -61 Q 391 -61 392.6 -59 L 392.6 -59 L 392.6 -59 Q 394.2 -57 394.2 -53.6 L 394.2 -53.6 L 394.2 -53.6 Q 394.2 -47.4 391.8 -43.9 L 391.8 -43.9 L 391.8 -43.9 Q 389.4 -40.4 384.6 -38.8 L 384.6 -38.8 L 384.6 -38.8 Q 375.4 -35.8 365 -35.8 L 365 -35.8 L 365 -35.8 Q 356.2 -35.8 348.4 -38.2 L 348.4 -38.2 L 348.4 -38.2 Q 342.6 -28.8 335.6 -18.8 L 335.6 -18.8 L 335.6 -18.8 Q 327.6 -7.4 321.8 -3.2 L 321.8 -3.2 L 321.8 -3.2 Q 316 1 308.6 1 L 308.6 1 L 308.6 1 Q 300.4 1 295.7 -5.4 L 295.7 -5.4 L 295.7 -5.4 Q 291 -11.8 289.8 -25.6 L 289.8 -25.6 L 289.8 -25.6 Q 287.4 -53.6 287.4 -74.6 L 287.4 -74.6 L 287.4 -81.6 L 287.4 -81.6 Q 287.6 -88.2 291 -90.8 L 291 -90.8 L 291 -90.8 Q 294.4 -93.4 301.2 -93.4 L 301.2 -93.4 L 301.2 -93.4 Q 306.4 -93.4 308.9 -91.1 L 308.9 -91.1 L 308.9 -91.1 Q 311.4 -88.8 311.4 -83.4 L 311.4 -83.4 L 311.4 -83.4 Q 311.4 -60.4 314.2 -23.6 L 314.2 -23.6 L 314.2 -23.6 Q 326.2 -41.4 332.2 -52 L 332.2 -52 L 332.2 -52 Q 329.2 -57.8 329.2 -65.8 L 329.2 -65.8 L 329.2 -65.8 Q 329.2 -72.6 332.2 -79 L 332.2 -79 L 332.2 -79 Q 335.2 -85.4 340.4 -89.4 L 340.4 -89.4 L 340.4 -89.4 Q 345.6 -93.4 352.2 -93.4 L 352.2 -93.4 L 352.2 -93.4 Q 358 -93.4 361.6 -89.3 L 361.6 -89.3 L 361.6 -89.3 Q 365.2 -85.2 365.2 -77.4 L 365.2 -77.4 L 365.2 -77.4 Q 365.2 -68.4 360.4 -56.8 L 360.4 -56.8 L 360.4 -56.8 Q 368 -57.2 380.6 -59.8 L 380.6 -59.8 L 386 -60.8 Z M 403 -106.4 L 403 -106.4 Q 394.6 -106.4 390.4 -110.3 L 390.4 -110.3 L 390.4 -110.3 Q 386.2 -114.2 386.2 -121.2 L 386.2 -121.2 L 386.2 -121.2 Q 386.2 -128.2 391.7 -132.9 L 391.7 -132.9 L 391.7 -132.9 Q 397.2 -137.6 405.4 -137.6 L 405.4 -137.6 L 405.4 -137.6 Q 412.8 -137.6 417.4 -134 L 417.4 -134 L 417.4 -134 Q 422 -130.4 422 -123.8 L 422 -123.8 L 422 -123.8 Q 422 -115.8 416.8 -111.1 L 416.8 -111.1 L 416.8 -111.1 Q 411.6 -106.4 403 -106.4 L 403 -106.4 Z M 401.4 1 L 401.4 1 Q 388.4 1 382.5 -8.2 L 382.5 -8.2 L 382.5 -8.2 Q 376.6 -17.4 376.6 -32.6 L 376.6 -32.6 L 376.6 -32.6 Q 376.6 -41.6 378.9 -55.7 L 378.9 -55.7 L 378.9 -55.7 Q 381.2 -69.8 384.8 -82 L 384.8 -82 L 384.8 -82 Q 386.6 -88.4 389.6 -90.8 L 389.6 -90.8 L 389.6 -90.8 Q 392.6 -93.2 399.2 -93.2 L 399.2 -93.2 L 399.2 -93.2 Q 409.4 -93.2 409.4 -86.4 L 409.4 -86.4 L 409.4 -86.4 Q 409.4 -81.4 405.6 -63.2 L 405.6 -63.2 L 405.6 -63.2 Q 400.8 -41.2 400.8 -33.4 L 400.8 -33.4 L 400.8 -33.4 Q 400.8 -27.4 402.4 -24.2 L 402.4 -24.2 L 402.4 -24.2 Q 404 -21 407.8 -21 L 407.8 -21 L 407.8 -21 Q 411.4 -21 416.8 -26 L 416.8 -26 L 416.8 -26 Q 422.2 -31 431.2 -41.8 L 431.2 -41.8 L 431.2 -41.8 Q 433.6 -44.6 436.6 -44.6 L 436.6 -44.6 L 436.6 -44.6 Q 439.2 -44.6 440.7 -42.2 L 440.7 -42.2 L 440.7 -42.2 Q 442.2 -39.8 442.2 -35.6 L 442.2 -35.6 L 442.2 -35.6 Q 442.2 -27.6 438.4 -23.2 L 438.4 -23.2 L 438.4 -23.2 Q 418.6 1 401.4 1 L 401.4 1 Z M 463.2 5.4 L 463.2 5.4 Q 452.8 5.4 447.3 0.6 L 447.3 0.6 L 447.3 0.6 Q 441.8 -4.2 441.8 -10.2 L 441.8 -10.2 L 441.8 -10.2 Q 441.8 -15.4 445.6 -19.2 L 445.6 -19.2 L 445.6 -19.2 Q 449.4 -23 456.8 -23 L 456.8 -23 L 456.8 -23 Q 459.4 -23 462.9 -22.5 L 462.9 -22.5 L 462.9 -22.5 Q 466.4 -22 468.2 -21.8 L 468.2 -21.8 L 468.2 -21.8 Q 468 -27 465.9 -31.6 L 465.9 -31.6 L 465.9 -31.6 Q 463.8 -36.2 460.6 -40.5 L 460.6 -40.5 L 460.6 -40.5 Q 457.4 -44.8 454.6 -48 L 454.6 -48 L 454.6 -48 Q 448.4 -36.2 442.3 -28.4 L 442.3 -28.4 L 442.3 -28.4 Q 436.2 -20.6 429 -13.6 L 429 -13.6 L 429 -13.6 Q 425.4 -10 421.4 -10 L 421.4 -10 L 421.4 -10 Q 418.2 -10 416.2 -12.3 L 416.2 -12.3 L 416.2 -12.3 Q 414.2 -14.6 414.2 -18 L 414.2 -18 L 414.2 -18 Q 414.2 -22 417 -25.4 L 417 -25.4 L 419.6 -28.6 L 419.6 -28.6 Q 430.6 -42.2 436.2 -51 L 436.2 -51 L 436.2 -51 Q 439.6 -56.8 444.2 -66.5 L 444.2 -66.5 L 444.2 -66.5 Q 448.8 -76.2 453.2 -86.6 L 453.2 -86.6 L 453.2 -86.6 Q 457 -95.4 469 -95.4 L 469 -95.4 L 469 -95.4 Q 474.6 -95.4 476.8 -94.4 L 476.8 -94.4 L 476.8 -94.4 Q 479 -93.4 479 -91.2 L 479 -91.2 L 479 -91.2 Q 479 -90 478.2 -87.4 L 478.2 -87.4 L 478.2 -87.4 Q 477.4 -84.8 476 -82.2 L 476 -82.2 L 476 -82.2 Q 472.4 -75 472.4 -70 L 472.4 -70 L 472.4 -70 Q 472.4 -67 474.5 -63.4 L 474.5 -63.4 L 474.5 -63.4 Q 476.6 -59.8 481 -54.4 L 481 -54.4 L 481 -54.4 Q 487.4 -46 490.7 -40.1 L 490.7 -40.1 L 490.7 -40.1 Q 494 -34.2 494 -27.2 L 494 -27.2 L 494 -27.2 Q 494 -25.2 493.6 -21.6 L 493.6 -21.6 L 493.6 -21.6 Q 503.4 -25.4 516.6 -41.8 L 516.6 -41.8 L 516.6 -41.8 Q 519 -44.6 522 -44.6 L 522 -44.6 L 522 -44.6 Q 524.6 -44.6 526.1 -42.2 L 526.1 -42.2 L 526.1 -42.2 Q 527.6 -39.8 527.6 -35.6 L 527.6 -35.6 L 527.6 -35.6 Q 527.6 -28 523.8 -23.2 L 523.8 -23.2 L 523.8 -23.2 Q 513.8 -10.8 504.7 -6.3 L 504.7 -6.3 L 504.7 -6.3 Q 495.6 -1.8 482.2 -1.4 L 482.2 -1.4 L 482.2 -1.4 Q 474.2 5.4 463.2 5.4 L 463.2 5.4 Z M 537.6 -106.4 L 537.6 -106.4 Q 529.2 -106.4 525 -110.3 L 525 -110.3 L 525 -110.3 Q 520.8 -114.2 520.8 -121.2 L 520.8 -121.2 L 520.8 -121.2 Q 520.8 -128.2 526.3 -132.9 L 526.3 -132.9 L 526.3 -132.9 Q 531.8 -137.6 540 -137.6 L 540 -137.6 L 540 -137.6 Q 547.4 -137.6 552 -134 L 552 -134 L 552 -134 Q 556.6 -130.4 556.6 -123.8 L 556.6 -123.8 L 556.6 -123.8 Q 556.6 -115.8 551.4 -111.1 L 551.4 -111.1 L 551.4 -111.1 Q 546.2 -106.4 537.6 -106.4 L 537.6 -106.4 Z M 536 1 L 536 1 Q 523 1 517.1 -8.2 L 517.1 -8.2 L 517.1 -8.2 Q 511.2 -17.4 511.2 -32.6 L 511.2 -32.6 L 511.2 -32.6 Q 511.2 -41.6 513.5 -55.7 L 513.5 -55.7 L 513.5 -55.7 Q 515.8 -69.8 519.4 -82 L 519.4 -82 L 519.4 -82 Q 521.2 -88.4 524.2 -90.8 L 524.2 -90.8 L 524.2 -90.8 Q 527.2 -93.2 533.8 -93.2 L 533.8 -93.2 L 533.8 -93.2 Q 544 -93.2 544 -86.4 L 544 -86.4 L 544 -86.4 Q 544 -81.4 540.2 -63.2 L 540.2 -63.2 L 540.2 -63.2 Q 535.4 -41.2 535.4 -33.4 L 535.4 -33.4 L 535.4 -33.4 Q 535.4 -27.4 537 -24.2 L 537 -24.2 L 537 -24.2 Q 538.6 -21 542.4 -21 L 542.4 -21 L 542.4 -21 Q 546 -21 551.4 -26 L 551.4 -26 L 551.4 -26 Q 556.8 -31 565.8 -41.8 L 565.8 -41.8 L 565.8 -41.8 Q 568.2 -44.6 571.2 -44.6 L 571.2 -44.6 L 571.2 -44.6 Q 573.8 -44.6 575.3 -42.2 L 575.3 -42.2 L 575.3 -42.2 Q 576.8 -39.8 576.8 -35.6 L 576.8 -35.6 L 576.8 -35.6 Q 576.8 -27.6 573 -23.2 L 573 -23.2 L 573 -23.2 Q 553.2 1 536 1 L 536 1 Z M 662.6 -61.4 L 662.6 -61.4 Q 665.2 -61.4 666.6 -58.8 L 666.6 -58.8 L 666.6 -58.8 Q 668 -56.2 668 -52.2 L 668 -52.2 L 668 -52.2 Q 668 -42.6 662.2 -40.8 L 662.2 -40.8 L 662.2 -40.8 Q 650.2 -36.6 635.8 -36 L 635.8 -36 L 635.8 -36 Q 632 -19.2 620.8 -9.1 L 620.8 -9.1 L 620.8 -9.1 Q 609.6 1 595.4 1 L 595.4 1 L 595.4 1 Q 583.4 1 574.9 -4.8 L 574.9 -4.8 L 574.9 -4.8 Q 566.4 -10.6 562 -20.2 L 562 -20.2 L 562 -20.2 Q 557.6 -29.8 557.6 -41 L 557.6 -41 L 557.6 -41 Q 557.6 -56.2 563.4 -68.1 L 563.4 -68.1 L 563.4 -68.1 Q 569.2 -80 579.4 -86.7 L 579.4 -86.7 L 579.4 -86.7 Q 589.6 -93.4 602 -93.4 L 602 -93.4 L 602 -93.4 Q 617.2 -93.4 626.5 -82.9 L 626.5 -82.9 L 626.5 -82.9 Q 635.8 -72.4 637.4 -57 L 637.4 -57 L 637.4 -57 Q 646.8 -57.6 659.8 -61 L 659.8 -61 L 659.8 -61 Q 661.4 -61.4 662.6 -61.4 L 662.6 -61.4 Z M 597 -20.2 L 597 -20.2 Q 603.4 -20.2 608.1 -25.4 L 608.1 -25.4 L 608.1 -25.4 Q 612.8 -30.6 614.4 -40.4 L 614.4 -40.4 L 614.4 -40.4 Q 608.2 -44.6 604.9 -51.4 L 604.9 -51.4 L 604.9 -51.4 Q 601.6 -58.2 601.6 -65.8 L 601.6 -65.8 L 601.6 -65.8 Q 601.6 -69 602.2 -72.2 L 602.2 -72.2 L 601.2 -72.2 L 601.2 -72.2 Q 593.2 -72.2 587.9 -64.5 L 587.9 -64.5 L 587.9 -64.5 Q 582.6 -56.8 582.6 -42.8 L 582.6 -42.8 L 582.6 -42.8 Q 582.6 -31.8 586.9 -26 L 586.9 -26 L 586.9 -26 Q 591.2 -20.2 597 -20.2 L 597 -20.2 Z M 665 1 L 665 1 Q 657.4 1 654.3 -7 L 654.3 -7 L 654.3 -7 Q 651.2 -15 651.2 -32.6 L 651.2 -32.6 L 651.2 -32.6 Q 651.2 -58.6 658.6 -82 L 658.6 -82 L 658.6 -82 Q 660.4 -87.8 664.5 -90.5 L 664.5 -90.5 L 664.5 -90.5 Q 668.6 -93.2 676 -93.2 L 676 -93.2 L 676 -93.2 Q 680 -93.2 681.6 -92.2 L 681.6 -92.2 L 681.6 -92.2 Q 683.2 -91.2 683.2 -88.4 L 683.2 -88.4 L 683.2 -88.4 Q 683.2 -85.2 680.2 -74 L 680.2 -74 L 680.2 -74 Q 678.2 -66 677 -60 L 677 -60 L 677 -60 Q 675.8 -54 675 -45.2 L 675 -45.2 L 675 -45.2 Q 681.6 -62.4 689.8 -73.2 L 689.8 -73.2 L 689.8 -73.2 Q 698 -84 705.9 -88.6 L 705.9 -88.6 L 705.9 -88.6 Q 713.8 -93.2 720.4 -93.2 L 720.4 -93.2 L 720.4 -93.2 Q 733.4 -93.2 733.4 -80.2 L 733.4 -80.2 L 733.4 -80.2 Q 733.4 -72.4 729 -52 L 729 -52 L 729 -52 Q 725.2 -34.6 725.2 -29 L 725.2 -29 L 725.2 -29 Q 725.2 -21 731 -21 L 731 -21 L 731 -21 Q 735 -21 740.5 -25.9 L 740.5 -25.9 L 740.5 -25.9 Q 746 -30.8 755.2 -41.8 L 755.2 -41.8 L 755.2 -41.8 Q 757.6 -44.6 760.6 -44.6 L 760.6 -44.6 L 760.6 -44.6 Q 763.2 -44.6 764.7 -42.2 L 764.7 -42.2 L 764.7 -42.2 Q 766.2 -39.8 766.2 -35.6 L 766.2 -35.6 L 766.2 -35.6 Q 766.2 -27.6 762.4 -23.2 L 762.4 -23.2 L 762.4 -23.2 Q 753.8 -12.6 743.9 -5.8 L 743.9 -5.8 L 743.9 -5.8 Q 734 1 721.4 1 L 721.4 1 L 721.4 1 Q 711.2 1 706 -4.9 L 706 -4.9 L 706 -4.9 Q 700.8 -10.8 700.8 -22 L 700.8 -22 L 700.8 -22 Q 700.8 -27.6 703.6 -42 L 703.6 -42 L 703.6 -42 Q 706.2 -54.6 706.2 -59.4 L 706.2 -59.4 L 706.2 -59.4 Q 706.2 -62.6 704 -62.6 L 704 -62.6 L 704 -62.6 Q 701.4 -62.6 696.7 -55.9 L 696.7 -55.9 L 696.7 -55.9 Q 692 -49.2 687.1 -38.2 L 687.1 -38.2 L 687.1 -38.2 Q 682.2 -27.2 679.2 -15 L 679.2 -15 L 679.2 -15 Q 677 -5.6 674.1 -2.3 L 674.1 -2.3 L 674.1 -2.3 Q 671.2 1 665 1 L 665 1 Z M 839.2 -44.6 L 839.2 -44.6 Q 841.8 -44.6 843.3 -42.2 L 843.3 -42.2 L 843.3 -42.2 Q 844.8 -39.8 844.8 -35.6 L 844.8 -35.6 L 844.8 -35.6 Q 844.8 -27.6 841 -23.2 L 841 -23.2 L 841 -23.2 Q 833.6 -14.2 820.1 -6.6 L 820.1 -6.6 L 820.1 -6.6 Q 806.6 1 791.2 1 L 791.2 1 L 791.2 1 Q 770.2 1 758.6 -10.4 L 758.6 -10.4 L 758.6 -10.4 Q 747 -21.8 747 -41.6 L 747 -41.6 L 747 -41.6 Q 747 -55.4 752.8 -67.3 L 752.8 -67.3 L 752.8 -67.3 Q 758.6 -79.2 768.9 -86.2 L 768.9 -86.2 L 768.9 -86.2 Q 779.2 -93.2 792.2 -93.2 L 792.2 -93.2 L 792.2 -93.2 Q 803.8 -93.2 810.8 -86.3 L 810.8 -86.3 L 810.8 -86.3 Q 817.8 -79.4 817.8 -67.6 L 817.8 -67.6 L 817.8 -67.6 Q 817.8 -53.8 807.9 -43.9 L 807.9 -43.9 L 807.9 -43.9 Q 798 -34 774.4 -28.2 L 774.4 -28.2 L 774.4 -28.2 Q 779.4 -19 793.4 -19 L 793.4 -19 L 793.4 -19 Q 802.4 -19 813.9 -25.3 L 813.9 -25.3 L 813.9 -25.3 Q 825.4 -31.6 833.8 -41.8 L 833.8 -41.8 L 833.8 -41.8 Q 836.2 -44.6 839.2 -44.6 L 839.2 -44.6 Z M 788.8 -73.6 L 788.8 -73.6 Q 781.4 -73.6 776.3 -65 L 776.3 -65 L 776.3 -65 Q 771.2 -56.4 771.2 -44.2 L 771.2 -44.2 L 771.2 -43.8 L 771.2 -43.8 Q 783 -46.6 789.8 -52.2 L 789.8 -52.2 L 789.8 -52.2 Q 796.6 -57.8 796.6 -65.2 L 796.6 -65.2 L 796.6 -65.2 Q 796.6 -69 794.5 -71.3 L 794.5 -71.3 L 794.5 -71.3 Q 792.4 -73.6 788.8 -73.6 L 788.8 -73.6 Z M 842.8 1 L 842.8 1 Q 835.2 1 832.1 -7 L 832.1 -7 L 832.1 -7 Q 829 -15 829 -32.6 L 829 -32.6 L 829 -32.6 Q 829 -58.6 836.4 -82 L 836.4 -82 L 836.4 -82 Q 838.2 -87.8 842.3 -90.5 L 842.3 -90.5 L 842.3 -90.5 Q 846.4 -93.2 853.8 -93.2 L 853.8 -93.2 L 853.8 -93.2 Q 857.8 -93.2 859.4 -92.2 L 859.4 -92.2 L 859.4 -92.2 Q 861 -91.2 861 -88.4 L 861 -88.4 L 861 -88.4 Q 861 -85.2 858 -74 L 858 -74 L 858 -74 Q 856 -66 854.8 -60 L 854.8 -60 L 854.8 -60 Q 853.6 -54 852.8 -45.2 L 852.8 -45.2 L 852.8 -45.2 Q 859.4 -62.4 867.6 -73.2 L 867.6 -73.2 L 867.6 -73.2 Q 875.8 -84 883.7 -88.6 L 883.7 -88.6 L 883.7 -88.6 Q 891.6 -93.2 898.2 -93.2 L 898.2 -93.2 L 898.2 -93.2 Q 911.2 -93.2 911.2 -80.2 L 911.2 -80.2 L 911.2 -80.2 Q 911.2 -77.6 909.4 -67.6 L 909.4 -67.6 L 909.4 -67.6 Q 907.8 -59.6 907.8 -57.6 L 907.8 -57.6 L 907.8 -57.6 Q 907.8 -50.6 912.8 -50.6 L 912.8 -50.6 L 912.8 -50.6 Q 918.4 -50.6 927.2 -59.4 L 927.2 -59.4 L 927.2 -59.4 Q 929.8 -62 932.6 -62 L 932.6 -62 L 932.6 -62 Q 935.2 -62 936.7 -59.7 L 936.7 -59.7 L 936.7 -59.7 Q 938.2 -57.4 938.2 -53.6 L 938.2 -53.6 L 938.2 -53.6 Q 938.2 -46.2 934.2 -42 L 934.2 -42 L 934.2 -42 Q 928.6 -36.2 921.1 -32.1 L 921.1 -32.1 L 921.1 -32.1 Q 913.6 -28 905.2 -28 L 905.2 -28 L 905.2 -28 Q 894.6 -28 889.1 -33.4 L 889.1 -33.4 L 889.1 -33.4 Q 883.6 -38.8 883.6 -48 L 883.6 -48 L 883.6 -48 Q 883.6 -51 884.2 -54 L 884.2 -54 L 884.2 -54 Q 884.6 -58 884.6 -59.4 L 884.6 -59.4 L 884.6 -59.4 Q 884.6 -62.6 882.4 -62.6 L 882.4 -62.6 L 882.4 -62.6 Q 879.4 -62.6 874.5 -55.9 L 874.5 -55.9 L 874.5 -55.9 Q 869.6 -49.2 864.8 -38.2 L 864.8 -38.2 L 864.8 -38.2 Q 860 -27.2 857 -15 L 857 -15 L 857 -15 Q 854.8 -5.6 851.9 -2.3 L 851.9 -2.3 L 851.9 -2.3 Q 849 1 842.8 1 L 842.8 1 Z" stroke-linecap="round" />
</g>
<g transform="matrix(2.47 0 0 2.47 899.71 645.09)" id="72c9c772-dbe5-4c34-91f8-76dfe2f41b69"  >
<path style="stroke: rgb(0,0,0); stroke-width: 0; stroke-dasharray: none; stroke-linecap: butt; stroke-dashoffset: 0; stroke-linejoin: miter; stroke-miterlimit: 4; fill: rgb(227,6,226); fill-rule: nonzero; opacity: 1;" vector-effect="non-scaling-stroke"  transform=" translate(-58.54, 9.66)" d="M 23.28 -8.92 L 23.28 -8.92 Q 23.8 -8.92 24.1 -8.44 L 24.1 -8.44 L 24.1 -8.44 Q 24.4 -7.96 24.4 -7.12 L 24.4 -7.12 L 24.4 -7.12 Q 24.4 -5.52 23.64 -4.64 L 23.64 -4.64 L 23.64 -4.64 Q 21.92 -2.52 19.94 -1.16 L 19.94 -1.16 L 19.94 -1.16 Q 17.96 0.2 15.44 0.2 L 15.44 0.2 L 15.44 0.2 Q 13.32 0.2 12 -1.32 L 12 -1.32 L 12 -1.32 Q 9.72 0.16 7.24 0.2 L 7.24 0.2 L 7.24 0.2 Q 6.72 7.92 4.88 13.1 L 4.88 13.1 L 4.88 13.1 Q 3.04 18.28 -0.52 18.28 L -0.52 18.28 L -0.52 18.28 Q -2.68 18.28 -3.72 16.72 L -3.72 16.72 L -3.72 16.72 Q -4.76 15.16 -4.76 12.4 L -4.76 12.4 L -4.76 12.4 Q -4.76 8.48 -2.96 3.26 L -2.96 3.26 L -2.96 3.26 Q -1.16 -1.96 2.6 -8.24 L 2.6 -8.24 L 2.6 -8.24 Q 2.6 -14.08 2.52 -16.36 L 2.52 -16.36 L 2.52 -16.36 Q 2.48 -17.52 3.44 -18.2 L 3.44 -18.2 L 3.44 -18.2 Q 4.4 -18.88 5.84 -18.88 L 5.84 -18.88 L 5.84 -18.88 Q 6.68 -18.88 7.06 -18.54 L 7.06 -18.54 L 7.06 -18.54 Q 7.44 -18.2 7.48 -17.2 L 7.48 -17.2 L 7.48 -17.2 Q 7.48 -16.2 7.52 -15.72 L 7.52 -15.72 L 7.52 -15.72 Q 8.8 -17.32 10.04 -18.02 L 10.04 -18.02 L 10.04 -18.02 Q 11.28 -18.72 12.68 -18.72 L 12.68 -18.72 L 12.68 -18.72 Q 14.92 -18.72 16.34 -16.92 L 16.34 -16.92 L 16.34 -16.92 Q 17.76 -15.12 17.76 -12.2 L 17.76 -12.2 L 17.76 -12.2 Q 17.76 -10.08 17.08 -8.08 L 17.08 -8.08 L 17.08 -8.08 Q 16.4 -6.08 15.2 -4.44 L 15.2 -4.44 L 15.2 -4.44 Q 16.04 -4.2 16.6 -4.2 L 16.6 -4.2 L 16.6 -4.2 Q 17.92 -4.2 19.12 -5.16 L 19.12 -5.16 L 19.12 -5.16 Q 20.32 -6.12 22.2 -8.36 L 22.2 -8.36 L 22.2 -8.36 Q 22.68 -8.92 23.28 -8.92 L 23.28 -8.92 Z M 7.44 -3.64 L 7.44 -3.64 Q 8.88 -3.96 10.1 -5.22 L 10.1 -5.22 L 10.1 -5.22 Q 11.32 -6.48 12.04 -8.34 L 12.04 -8.34 L 12.04 -8.34 Q 12.76 -10.2 12.76 -12.24 L 12.76 -12.24 L 12.76 -12.24 Q 12.76 -13.44 12.28 -14.06 L 12.28 -14.06 L 12.28 -14.06 Q 11.8 -14.68 11 -14.68 L 11 -14.68 L 11 -14.68 Q 9.56 -14.68 7.52 -11.64 L 7.52 -11.64 L 7.52 -11.64 Q 7.48 -9.88 7.48 -6.48 L 7.48 -6.48 L 7.48 -6.48 Q 7.48 -4.64 7.44 -3.64 L 7.44 -3.64 Z M -0.2 14.36 L -0.2 14.36 Q 0.88 14.36 1.6 9.66 L 1.6 9.66 L 1.6 9.66 Q 2.32 4.96 2.52 -2.04 L 2.52 -2.04 L 2.52 -2.04 Q 0.8 1.96 -0.2 5.6 L -0.2 5.6 L -0.2 5.6 Q -1.2 9.24 -1.2 11.72 L -1.2 11.72 L -1.2 11.72 Q -1.2 13 -0.9 13.68 L -0.9 13.68 L -0.9 13.68 Q -0.6 14.36 -0.2 14.36 L -0.2 14.36 Z M 36.32 -8.92 L 36.32 -8.92 Q 36.84 -8.92 37.14 -8.44 L 37.14 -8.44 L 37.14 -8.44 Q 37.44 -7.96 37.44 -7.12 L 37.44 -7.12 L 37.44 -7.12 Q 37.44 -5.52 36.68 -4.64 L 36.68 -4.64 L 36.68 -4.64 Q 34.96 -2.52 32.94 -1.16 L 32.94 -1.16 L 32.94 -1.16 Q 30.92 0.2 28.36 0.2 L 28.36 0.2 L 28.36 0.2 Q 24.84 0.2 23.14 -3 L 23.14 -3 L 23.14 -3 Q 21.44 -6.2 21.44 -11.28 L 21.44 -11.28 L 21.44 -11.28 Q 21.44 -16.16 22.7 -22.4 L 22.7 -22.4 L 22.7 -22.4 Q 23.96 -28.64 26.42 -33.12 L 26.42 -33.12 L 26.42 -33.12 Q 28.88 -37.6 32.28 -37.6 L 32.28 -37.6 L 32.28 -37.6 Q 34.2 -37.6 35.3 -35.82 L 35.3 -35.82 L 35.3 -35.82 Q 36.4 -34.04 36.4 -30.72 L 36.4 -30.72 L 36.4 -30.72 Q 36.4 -25.96 33.76 -19.68 L 33.76 -19.68 L 33.76 -19.68 Q 31.12 -13.4 26.6 -7.24 L 26.6 -7.24 L 26.6 -7.24 Q 26.88 -5.6 27.52 -4.9 L 27.52 -4.9 L 27.52 -4.9 Q 28.16 -4.2 29.2 -4.2 L 29.2 -4.2 L 29.2 -4.2 Q 30.84 -4.2 32.08 -5.14 L 32.08 -5.14 L 32.08 -5.14 Q 33.32 -6.08 35.24 -8.36 L 35.24 -8.36 L 35.24 -8.36 Q 35.72 -8.92 36.32 -8.92 L 36.32 -8.92 Z M 31.4 -33.64 L 31.4 -33.64 Q 30.48 -33.64 29.32 -30.32 L 29.32 -30.32 L 29.32 -30.32 Q 28.16 -27 27.28 -22.08 L 27.28 -22.08 L 27.28 -22.08 Q 26.4 -17.16 26.32 -12.64 L 26.32 -12.64 L 26.32 -12.64 Q 29.16 -17.32 30.84 -22.02 L 30.84 -22.02 L 30.84 -22.02 Q 32.52 -26.72 32.52 -30.6 L 32.52 -30.6 L 32.52 -30.6 Q 32.52 -33.64 31.4 -33.64 L 31.4 -33.64 Z M 38.28 0.2 L 38.28 0.2 Q 36.48 0.2 35.34 -1.46 L 35.34 -1.46 L 35.34 -1.46 Q 34.2 -3.12 34.2 -5.6 L 34.2 -5.6 L 34.2 -5.6 Q 34.2 -8.6 34.6 -11.1 L 34.6 -11.1 L 34.6 -11.1 Q 35 -13.6 35.92 -16.4 L 35.92 -16.4 L 35.92 -16.4 Q 36.32 -17.6 37.04 -18.12 L 37.04 -18.12 L 37.04 -18.12 Q 37.76 -18.64 39.32 -18.64 L 39.32 -18.64 L 39.32 -18.64 Q 40.2 -18.64 40.54 -18.36 L 40.54 -18.36 L 40.54 -18.36 Q 40.88 -18.08 40.88 -17.52 L 40.88 -17.52 L 40.88 -17.52 Q 40.88 -17.2 40.44 -15.36 L 40.44 -15.36 L 40.44 -15.36 Q 40.04 -13.88 39.8 -12.68 L 39.8 -12.68 L 39.8 -12.68 Q 39 -8.48 39 -7.08 L 39 -7.08 L 39 -7.08 Q 39 -6.24 39.2 -5.9 L 39.2 -5.9 L 39.2 -5.9 Q 39.4 -5.56 39.84 -5.56 L 39.84 -5.56 L 39.84 -5.56 Q 40.44 -5.56 41.34 -6.76 L 41.34 -6.76 L 41.34 -6.76 Q 42.24 -7.96 43.26 -10.4 L 43.26 -10.4 L 43.26 -10.4 Q 44.28 -12.84 45.24 -16.4 L 45.24 -16.4 L 45.24 -16.4 Q 45.56 -17.6 46.22 -18.12 L 46.22 -18.12 L 46.22 -18.12 Q 46.88 -18.64 48.2 -18.64 L 48.2 -18.64 L 48.2 -18.64 Q 49.12 -18.64 49.48 -18.42 L 49.48 -18.42 L 49.48 -18.42 Q 49.84 -18.2 49.84 -17.6 L 49.84 -17.6 L 49.84 -17.6 Q 49.84 -16.6 48.84 -12.12 L 48.84 -12.12 L 48.84 -12.12 Q 47.72 -7 47.72 -5.8 L 47.72 -5.8 L 47.72 -5.8 Q 47.72 -5.04 48.04 -4.62 L 48.04 -4.62 L 48.04 -4.62 Q 48.36 -4.2 48.88 -4.2 L 48.88 -4.2 L 48.88 -4.2 Q 49.68 -4.2 50.78 -5.18 L 50.78 -5.18 L 50.78 -5.18 Q 51.88 -6.16 53.72 -8.36 L 53.72 -8.36 L 53.72 -8.36 Q 54.2 -8.92 54.8 -8.92 L 54.8 -8.92 L 54.8 -8.92 Q 55.32 -8.92 55.62 -8.44 L 55.62 -8.44 L 55.62 -8.44 Q 55.92 -7.96 55.92 -7.12 L 55.92 -7.12 L 55.92 -7.12 Q 55.92 -5.52 55.16 -4.64 L 55.16 -4.64 L 55.16 -4.64 Q 53.44 -2.52 51.46 -1.16 L 51.46 -1.16 L 51.46 -1.16 Q 49.48 0.2 46.96 0.2 L 46.96 0.2 L 46.96 0.2 Q 45.04 0.2 44.14 -1.28 L 44.14 -1.28 L 44.14 -1.28 Q 43.24 -2.76 43.24 -5.44 L 43.24 -5.44 L 43.24 -5.44 Q 42.56 -2.72 41.2 -1.26 L 41.2 -1.26 L 41.2 -1.26 Q 39.84 0.2 38.28 0.2 L 38.28 0.2 Z M 73.16 -8.84 L 73.16 -8.84 Q 73.68 -8.84 73.98 -8.34 L 73.98 -8.34 L 73.98 -8.34 Q 74.28 -7.84 74.28 -7.08 L 74.28 -7.08 L 74.28 -7.08 Q 74.28 -6.16 74 -5.64 L 74 -5.64 L 74 -5.64 Q 73.72 -5.12 73.12 -4.72 L 73.12 -4.72 L 73.12 -4.72 Q 69.68 -2.4 68.08 -1.28 L 68.08 -1.28 L 65.52 0.44 L 65.52 0.44 Q 64 8.72 61.54 13.46 L 61.54 13.46 L 61.54 13.46 Q 59.08 18.2 55.28 18.2 L 55.28 18.2 L 55.28 18.2 Q 53.24 18.2 51.96 16.94 L 51.96 16.94 L 51.96 16.94 Q 50.68 15.68 50.68 13.64 L 50.68 13.64 L 50.68 13.64 Q 50.68 10.8 52.92 7.54 L 52.92 7.54 L 52.92 7.54 Q 55.16 4.28 61.32 -0.48 L 61.32 -0.48 L 61.56 -2.04 L 61.56 -2.04 Q 60.88 -0.96 59.78 -0.38 L 59.78 -0.38 L 59.78 -0.38 Q 58.68 0.2 57.6 0.2 L 57.6 0.2 L 57.6 0.2 Q 55.12 0.2 53.64 -1.6 L 53.64 -1.6 L 53.64 -1.6 Q 52.16 -3.4 52.16 -6.32 L 52.16 -6.32 L 52.16 -6.32 Q 52.16 -9.52 53.64 -12.38 L 53.64 -12.38 L 53.64 -12.38 Q 55.12 -15.24 57.58 -16.98 L 57.58 -16.98 L 57.58 -16.98 Q 60.04 -18.72 62.8 -18.72 L 62.8 -18.72 L 62.8 -18.72 Q 63.68 -18.72 63.98 -18.38 L 63.98 -18.38 L 63.98 -18.38 Q 64.28 -18.04 64.48 -17.16 L 64.48 -17.16 L 64.48 -17.16 Q 65.24 -17.32 66.24 -17.32 L 66.24 -17.32 L 66.24 -17.32 Q 67.24 -17.32 67.66 -17.02 L 67.66 -17.02 L 67.66 -17.02 Q 68.08 -16.72 68.08 -15.84 L 68.08 -15.84 L 68.08 -15.84 Q 68.08 -15.36 68.04 -15.08 L 68.04 -15.08 L 68.04 -15.08 Q 67.88 -13.84 67.04 -8.8 L 67.04 -8.8 L 67.04 -8.8 Q 66.88 -7.84 66.7 -6.7 L 66.7 -6.7 L 66.7 -6.7 Q 66.52 -5.56 66.32 -4.28 L 66.32 -4.28 L 66.32 -4.28 Q 69.4 -6.68 72.24 -8.52 L 72.24 -8.52 L 72.24 -8.52 Q 72.76 -8.84 73.16 -8.84 L 73.16 -8.84 Z M 59.04 -3.84 L 59.04 -3.84 Q 59.96 -3.84 60.8 -4.96 L 60.8 -4.96 L 60.8 -4.96 Q 61.64 -6.08 62 -8.16 L 62 -8.16 L 63.28 -15 L 63.28 -15 Q 61.64 -14.96 60.24 -13.74 L 60.24 -13.74 L 60.24 -13.74 Q 58.84 -12.52 58 -10.52 L 58 -10.52 L 58 -10.52 Q 57.16 -8.52 57.16 -6.28 L 57.16 -6.28 L 57.16 -6.28 Q 57.16 -5.04 57.66 -4.44 L 57.66 -4.44 L 57.66 -4.44 Q 58.16 -3.84 59.04 -3.84 L 59.04 -3.84 Z M 55.72 14.32 L 55.72 14.32 Q 56.72 14.32 57.98 11.92 L 57.98 11.92 L 57.98 11.92 Q 59.24 9.52 60.4 4.28 L 60.4 4.28 L 60.4 4.28 Q 57.32 6.92 55.96 9.04 L 55.96 9.04 L 55.96 9.04 Q 54.6 11.16 54.6 12.76 L 54.6 12.76 L 54.6 12.76 Q 54.6 13.44 54.86 13.88 L 54.86 13.88 L 54.86 13.88 Q 55.12 14.32 55.72 14.32 L 55.72 14.32 Z M 77.08 -21.28 L 77.08 -21.28 Q 75.4 -21.28 74.56 -22.06 L 74.56 -22.06 L 74.56 -22.06 Q 73.72 -22.84 73.72 -24.24 L 73.72 -24.24 L 73.72 -24.24 Q 73.72 -25.64 74.82 -26.58 L 74.82 -26.58 L 74.82 -26.58 Q 75.92 -27.52 77.56 -27.52 L 77.56 -27.52 L 77.56 -27.52 Q 79.04 -27.52 79.96 -26.8 L 79.96 -26.8 L 79.96 -26.8 Q 80.88 -26.08 80.88 -24.76 L 80.88 -24.76 L 80.88 -24.76 Q 80.88 -23.16 79.84 -22.22 L 79.84 -22.22 L 79.84 -22.22 Q 78.8 -21.28 77.08 -21.28 L 77.08 -21.28 Z M 76.76 0.2 L 76.76 0.2 Q 74.16 0.2 72.98 -1.64 L 72.98 -1.64 L 72.98 -1.64 Q 71.8 -3.48 71.8 -6.52 L 71.8 -6.52 L 71.8 -6.52 Q 71.8 -8.32 72.26 -11.14 L 72.26 -11.14 L 72.26 -11.14 Q 72.72 -13.96 73.44 -16.4 L 73.44 -16.4 L 73.44 -16.4 Q 73.8 -17.68 74.4 -18.16 L 74.4 -18.16 L 74.4 -18.16 Q 75 -18.64 76.32 -18.64 L 76.32 -18.64 L 76.32 -18.64 Q 78.36 -18.64 78.36 -17.28 L 78.36 -17.28 L 78.36 -17.28 Q 78.36 -16.28 77.6 -12.64 L 77.6 -12.64 L 77.6 -12.64 Q 76.64 -8.24 76.64 -6.68 L 76.64 -6.68 L 76.64 -6.68 Q 76.64 -5.48 76.96 -4.84 L 76.96 -4.84 L 76.96 -4.84 Q 77.28 -4.2 78.04 -4.2 L 78.04 -4.2 L 78.04 -4.2 Q 78.76 -4.2 79.84 -5.2 L 79.84 -5.2 L 79.84 -5.2 Q 80.92 -6.2 82.72 -8.36 L 82.72 -8.36 L 82.72 -8.36 Q 83.2 -8.92 83.8 -8.92 L 83.8 -8.92 L 83.8 -8.92 Q 84.32 -8.92 84.62 -8.44 L 84.62 -8.44 L 84.62 -8.44 Q 84.92 -7.96 84.92 -7.12 L 84.92 -7.12 L 84.92 -7.12 Q 84.92 -5.52 84.16 -4.64 L 84.16 -4.64 L 84.16 -4.64 Q 80.2 0.2 76.76 0.2 L 76.76 0.2 Z M 84.52 0.2 L 84.52 0.2 Q 83 0.2 82.38 -1.4 L 82.38 -1.4 L 82.38 -1.4 Q 81.76 -3 81.76 -6.52 L 81.76 -6.52 L 81.76 -6.52 Q 81.76 -11.72 83.24 -16.4 L 83.24 -16.4 L 83.24 -16.4 Q 83.6 -17.56 84.42 -18.1 L 84.42 -18.1 L 84.42 -18.1 Q 85.24 -18.64 86.72 -18.64 L 86.72 -18.64 L 86.72 -18.64 Q 87.52 -18.64 87.84 -18.44 L 87.84 -18.44 L 87.84 -18.44 Q 88.16 -18.24 88.16 -17.68 L 88.16 -17.68 L 88.16 -17.68 Q 88.16 -17.04 87.56 -14.8 L 87.56 -14.8 L 87.56 -14.8 Q 87.16 -13.2 86.92 -12 L 86.92 -12 L 86.92 -12 Q 86.68 -10.8 86.52 -9.04 L 86.52 -9.04 L 86.52 -9.04 Q 87.84 -12.48 89.48 -14.64 L 89.48 -14.64 L 89.48 -14.64 Q 91.12 -16.8 92.7 -17.72 L 92.7 -17.72 L 92.7 -17.72 Q 94.28 -18.64 95.6 -18.64 L 95.6 -18.64 L 95.6 -18.64 Q 98.2 -18.64 98.2 -16.04 L 98.2 -16.04 L 98.2 -16.04 Q 98.2 -14.48 97.32 -10.4 L 97.32 -10.4 L 97.32 -10.4 Q 96.56 -6.92 96.56 -5.8 L 96.56 -5.8 L 96.56 -5.8 Q 96.56 -4.2 97.72 -4.2 L 97.72 -4.2 L 97.72 -4.2 Q 98.52 -4.2 99.62 -5.18 L 99.62 -5.18 L 99.62 -5.18 Q 100.72 -6.16 102.56 -8.36 L 102.56 -8.36 L 102.56 -8.36 Q 103.04 -8.92 103.64 -8.92 L 103.64 -8.92 L 103.64 -8.92 Q 104.16 -8.92 104.46 -8.44 L 104.46 -8.44 L 104.46 -8.44 Q 104.76 -7.96 104.76 -7.12 L 104.76 -7.12 L 104.76 -7.12 Q 104.76 -5.52 104 -4.64 L 104 -4.64 L 104 -4.64 Q 102.28 -2.52 100.3 -1.16 L 100.3 -1.16 L 100.3 -1.16 Q 98.32 0.2 95.8 0.2 L 95.8 0.2 L 95.8 0.2 Q 93.76 0.2 92.72 -0.98 L 92.72 -0.98 L 92.72 -0.98 Q 91.68 -2.16 91.68 -4.4 L 91.68 -4.4 L 91.68 -4.4 Q 91.68 -5.52 92.24 -8.4 L 92.24 -8.4 L 92.24 -8.4 Q 92.76 -10.92 92.76 -11.88 L 92.76 -11.88 L 92.76 -11.88 Q 92.76 -12.52 92.32 -12.52 L 92.32 -12.52 L 92.32 -12.52 Q 91.8 -12.52 90.86 -11.18 L 90.86 -11.18 L 90.86 -11.18 Q 89.92 -9.84 88.94 -7.64 L 88.94 -7.64 L 88.94 -7.64 Q 87.96 -5.44 87.36 -3 L 87.36 -3 L 87.36 -3 Q 86.92 -1.12 86.34 -0.46 L 86.34 -0.46 L 86.34 -0.46 Q 85.76 0.2 84.52 0.2 L 84.52 0.2 Z M 108.96 1.08 L 108.96 1.08 Q 106.88 1.08 105.78 0.12 L 105.78 0.12 L 105.78 0.12 Q 104.68 -0.84 104.68 -2.04 L 104.68 -2.04 L 104.68 -2.04 Q 104.68 -3.08 105.44 -3.84 L 105.44 -3.84 L 105.44 -3.84 Q 106.2 -4.6 107.68 -4.6 L 107.68 -4.6 L 107.68 -4.6 Q 108.2 -4.6 108.9 -4.5 L 108.9 -4.5 L 108.9 -4.5 Q 109.6 -4.4 109.96 -4.36 L 109.96 -4.36 L 109.96 -4.36 Q 109.92 -5.4 109.5 -6.32 L 109.5 -6.32 L 109.5 -6.32 Q 109.08 -7.24 108.44 -8.1 L 108.44 -8.1 L 108.44 -8.1 Q 107.8 -8.96 107.24 -9.6 L 107.24 -9.6 L 107.24 -9.6 Q 106 -7.24 104.78 -5.68 L 104.78 -5.68 L 104.78 -5.68 Q 103.56 -4.12 102.12 -2.72 L 102.12 -2.72 L 102.12 -2.72 Q 101.4 -2 100.6 -2 L 100.6 -2 L 100.6 -2 Q 99.96 -2 99.56 -2.46 L 99.56 -2.46 L 99.56 -2.46 Q 99.16 -2.92 99.16 -3.6 L 99.16 -3.6 L 99.16 -3.6 Q 99.16 -4.4 99.72 -5.08 L 99.72 -5.08 L 100.24 -5.72 L 100.24 -5.72 Q 102.44 -8.44 103.56 -10.2 L 103.56 -10.2 L 103.56 -10.2 Q 104.24 -11.36 105.16 -13.3 L 105.16 -13.3 L 105.16 -13.3 Q 106.08 -15.24 106.96 -17.32 L 106.96 -17.32 L 106.96 -17.32 Q 107.72 -19.08 110.12 -19.08 L 110.12 -19.08 L 110.12 -19.08 Q 111.24 -19.08 111.68 -18.88 L 111.68 -18.88 L 111.68 -18.88 Q 112.12 -18.68 112.12 -18.24 L 112.12 -18.24 L 112.12 -18.24 Q 112.12 -18 111.96 -17.48 L 111.96 -17.48 L 111.96 -17.48 Q 111.8 -16.96 111.52 -16.44 L 111.52 -16.44 L 111.52 -16.44 Q 110.8 -15 110.8 -14 L 110.8 -14 L 110.8 -14 Q 110.8 -13.4 111.22 -12.68 L 111.22 -12.68 L 111.22 -12.68 Q 111.64 -11.96 112.52 -10.88 L 112.52 -10.88 L 112.52 -10.88 Q 113.8 -9.2 114.46 -8.02 L 114.46 -8.02 L 114.46 -8.02 Q 115.12 -6.84 115.12 -5.44 L 115.12 -5.44 L 115.12 -5.44 Q 115.12 -5.04 115.04 -4.32 L 115.04 -4.32 L 115.04 -4.32 Q 117 -5.08 119.64 -8.36 L 119.64 -8.36 L 119.64 -8.36 Q 120.12 -8.92 120.72 -8.92 L 120.72 -8.92 L 120.72 -8.92 Q 121.24 -8.92 121.54 -8.44 L 121.54 -8.44 L 121.54 -8.44 Q 121.84 -7.96 121.84 -7.12 L 121.84 -7.12 L 121.84 -7.12 Q 121.84 -5.6 121.08 -4.64 L 121.08 -4.64 L 121.08 -4.64 Q 119.08 -2.16 117.26 -1.26 L 117.26 -1.26 L 117.26 -1.26 Q 115.44 -0.36 112.76 -0.28 L 112.76 -0.28 L 112.76 -0.28 Q 111.16 1.08 108.96 1.08 L 108.96 1.08 Z" stroke-linecap="round" />
</g>
</svg>