<svg width="1306.2784179687499px" height="498.903125px" xmlns="http://www.w3.org/2000/svg" viewBox="-403.13920898437493 -174.4515625 1306.2784179687499 498.903125" style="background: none;" preserveAspectRatio="xMidYMid"><defs><filter id="editing-extrude-glow"><feFlood flood-color="#ffffff" result="flood-1"></feFlood><feMorphology operator="erode" radius="1" in="SourceAlpha" result="erode"></feMorphology><feComposite operator="in" in="flood-1" in2="erode" result="comp1"></feComposite><feConvolveMatrix order="4,4" divisor="1" in="comp1" result="convolve" kernelMatrix="0 0 0 0 0 0 0 0 1 1 1 1 0 0 0 0"></feConvolveMatrix><feOffset dx="-4" dy="0" in="convolve" result="extrude"></feOffset><feComposite operator="in" in="flood-1" in2="extrude" result="comp-extrude"></feComposite><feFlood flood-color="#000000" result="flood-2"></feFlood><feComposite operator="in" in="flood-2" in2="SourceAlpha" result="comp2"></feComposite><feMorphology operator="dilate" radius="1" in="comp2" result="dilate"></feMorphology><feOffset dx="-6" dy="0" in="dilate" result="offset"></feOffset><feGaussianBlur in="offset" stdDeviation="5.8" result="blur"></feGaussianBlur><feComponentTransfer in="blur" result="shadow"><feFuncA type="linear" slope="0.8" intercept="-0.2"></feFuncA></feComponentTransfer><feMerge><feMergeNode in="shadow"></feMergeNode><feMergeNode in="comp-extrude"></feMergeNode><feMergeNode in="SourceGraphic"></feMergeNode></feMerge></filter></defs><g filter="url(#editing-extrude-glow)"><g transform="translate(-218.10219192504883, 189.97907257080078)"><path d="M116.40-44.60L116.40-44.60Q119-44.60 120.50-42.20L120.50-42.20L120.50-42.20Q122-39.80 122-35.60L122-35.60L122-35.60Q122-27.60 118.20-23.20L118.20-23.20L118.20-23.20Q109.60-12.60 99.70-5.80L99.70-5.80L99.70-5.80Q89.80 1 77.20 1L77.20 1L77.20 1Q66.60 1 60-6.60L60-6.60L60-6.60Q48.60 0.80 36.20 1L36.20 1L36.20 1Q33.60 39.60 24.40 65.50L24.40 65.50L24.40 65.50Q15.20 91.40-2.60 91.40L-2.60 91.40L-2.60 91.40Q-13.40 91.40-18.60 83.60L-18.60 83.60L-18.60 83.60Q-23.80 75.80-23.80 62L-23.80 62L-23.80 62Q-23.80 42.40-14.80 16.30L-14.80 16.30L-14.80 16.30Q-5.80-9.80 13-41.20L13-41.20L13-41.20Q13-70.40 12.60-81.80L12.60-81.80L12.60-81.80Q12.40-87.60 17.20-91L17.20-91L17.20-91Q22-94.40 29.20-94.40L29.20-94.40L29.20-94.40Q33.40-94.40 35.30-92.70L35.30-92.70L35.30-92.70Q37.20-91 37.40-86L37.40-86L37.40-86Q37.40-81 37.60-78.60L37.60-78.60L37.60-78.60Q44-86.60 50.20-90.10L50.20-90.10L50.20-90.10Q56.40-93.60 63.40-93.60L63.40-93.60L63.40-93.60Q74.60-93.60 81.70-84.60L81.70-84.60L81.70-84.60Q88.80-75.60 88.80-61L88.80-61L88.80-61Q88.80-50.40 85.40-40.40L85.40-40.40L85.40-40.40Q82-30.40 76-22.20L76-22.20L76-22.20Q80.20-21 83-21L83-21L83-21Q89.60-21 95.60-25.80L95.60-25.80L95.60-25.80Q101.60-30.60 111-41.80L111-41.80L111-41.80Q113.40-44.60 116.40-44.60L116.40-44.60ZM37.20-18.20L37.20-18.20Q44.40-19.80 50.50-26.10L50.50-26.10L50.50-26.10Q56.60-32.40 60.20-41.70L60.20-41.70L60.20-41.70Q63.80-51 63.80-61.20L63.80-61.20L63.80-61.20Q63.80-67.20 61.40-70.30L61.40-70.30L61.40-70.30Q59-73.40 55-73.40L55-73.40L55-73.40Q47.80-73.40 37.60-58.20L37.60-58.20L37.60-58.20Q37.40-49.40 37.40-32.40L37.40-32.40L37.40-32.40Q37.40-23.20 37.20-18.20L37.20-18.20ZM-1 71.80L-1 71.80Q4.40 71.80 8 48.30L8 48.30L8 48.30Q11.60 24.80 12.60-10.20L12.60-10.20L12.60-10.20Q4 9.80-1 28L-1 28L-1 28Q-6 46.20-6 58.60L-6 58.60L-6 58.60Q-6 65-4.50 68.40L-4.50 68.40L-4.50 68.40Q-3 71.80-1 71.80L-1 71.80ZM120 1L120 1Q112.40 1 109.30-7L109.30-7L109.30-7Q106.20-15 106.20-32.60L106.20-32.60L106.20-32.60Q106.20-58.60 113.60-82L113.60-82L113.60-82Q115.40-87.80 119.50-90.50L119.50-90.50L119.50-90.50Q123.60-93.20 131-93.20L131-93.20L131-93.20Q135-93.20 136.60-92.20L136.60-92.20L136.60-92.20Q138.20-91.20 138.20-88.40L138.20-88.40L138.20-88.40Q138.20-85.20 135.20-74L135.20-74L135.20-74Q133.20-66 132-60L132-60L132-60Q130.80-54 130-45.20L130-45.20L130-45.20Q136.60-62.40 144.80-73.20L144.80-73.20L144.80-73.20Q153-84 160.90-88.60L160.90-88.60L160.90-88.60Q168.80-93.20 175.40-93.20L175.40-93.20L175.40-93.20Q188.40-93.20 188.40-80.20L188.40-80.20L188.40-80.20Q188.40-77.60 186.60-67.60L186.60-67.60L186.60-67.60Q185-59.60 185-57.60L185-57.60L185-57.60Q185-50.60 190-50.60L190-50.60L190-50.60Q195.60-50.60 204.40-59.40L204.40-59.40L204.40-59.40Q207-62 209.80-62L209.80-62L209.80-62Q212.40-62 213.90-59.70L213.90-59.70L213.90-59.70Q215.40-57.40 215.40-53.60L215.40-53.60L215.40-53.60Q215.40-46.20 211.40-42L211.40-42L211.40-42Q205.80-36.20 198.30-32.10L198.30-32.10L198.30-32.10Q190.80-28 182.40-28L182.40-28L182.40-28Q171.80-28 166.30-33.40L166.30-33.40L166.30-33.40Q160.80-38.80 160.80-48L160.80-48L160.80-48Q160.80-51 161.40-54L161.40-54L161.40-54Q161.80-58 161.80-59.40L161.80-59.40L161.80-59.40Q161.80-62.60 159.60-62.60L159.60-62.60L159.60-62.60Q156.60-62.60 151.70-55.90L151.70-55.90L151.70-55.90Q146.80-49.20 142-38.20L142-38.20L142-38.20Q137.20-27.20 134.20-15L134.20-15L134.20-15Q132-5.60 129.10-2.30L129.10-2.30L129.10-2.30Q126.20 1 120 1L120 1ZM298.80-61.40L298.80-61.40Q301.40-61.40 302.80-58.80L302.80-58.80L302.80-58.80Q304.20-56.20 304.20-52.20L304.20-52.20L304.20-52.20Q304.20-42.60 298.40-40.80L298.40-40.80L298.40-40.80Q286.40-36.60 272-36L272-36L272-36Q268.20-19.20 257-9.10L257-9.10L257-9.10Q245.80 1 231.60 1L231.60 1L231.60 1Q219.60 1 211.10-4.80L211.10-4.80L211.10-4.80Q202.60-10.60 198.20-20.20L198.20-20.20L198.20-20.20Q193.80-29.80 193.80-41L193.80-41L193.80-41Q193.80-56.20 199.60-68.10L199.60-68.10L199.60-68.10Q205.40-80 215.60-86.70L215.60-86.70L215.60-86.70Q225.80-93.40 238.20-93.40L238.20-93.40L238.20-93.40Q253.40-93.40 262.70-82.90L262.70-82.90L262.70-82.90Q272-72.40 273.60-57L273.60-57L273.60-57Q283-57.60 296-61L296-61L296-61Q297.60-61.40 298.80-61.40L298.80-61.40ZM233.20-20.20L233.20-20.20Q239.60-20.20 244.30-25.40L244.30-25.40L244.30-25.40Q249-30.60 250.60-40.40L250.60-40.40L250.60-40.40Q244.40-44.60 241.10-51.40L241.10-51.40L241.10-51.40Q237.80-58.20 237.80-65.80L237.80-65.80L237.80-65.80Q237.80-69 238.40-72.20L238.40-72.20L237.40-72.20L237.40-72.20Q229.40-72.20 224.10-64.50L224.10-64.50L224.10-64.50Q218.80-56.80 218.80-42.80L218.80-42.80L218.80-42.80Q218.80-31.80 223.10-26L223.10-26L223.10-26Q227.40-20.20 233.20-20.20L233.20-20.20ZM386-60.80L386-60.80Q386.60-61 388-61L388-61L388-61Q391-61 392.60-59L392.60-59L392.60-59Q394.20-57 394.20-53.60L394.20-53.60L394.20-53.60Q394.20-47.40 391.80-43.90L391.80-43.90L391.80-43.90Q389.40-40.40 384.60-38.80L384.60-38.80L384.60-38.80Q375.40-35.80 365-35.80L365-35.80L365-35.80Q356.20-35.80 348.40-38.20L348.40-38.20L348.40-38.20Q342.60-28.80 335.60-18.80L335.60-18.80L335.60-18.80Q327.60-7.40 321.80-3.20L321.80-3.20L321.80-3.20Q316 1 308.60 1L308.60 1L308.60 1Q300.40 1 295.70-5.40L295.70-5.40L295.70-5.40Q291-11.80 289.80-25.60L289.80-25.60L289.80-25.60Q287.40-53.60 287.40-74.60L287.40-74.60L287.40-81.60L287.40-81.60Q287.60-88.20 291-90.80L291-90.80L291-90.80Q294.40-93.40 301.20-93.40L301.20-93.40L301.20-93.40Q306.40-93.40 308.90-91.10L308.90-91.10L308.90-91.10Q311.40-88.80 311.40-83.40L311.40-83.40L311.40-83.40Q311.40-60.40 314.20-23.60L314.20-23.60L314.20-23.60Q326.20-41.40 332.20-52L332.20-52L332.20-52Q329.20-57.80 329.20-65.80L329.20-65.80L329.20-65.80Q329.20-72.60 332.20-79L332.20-79L332.20-79Q335.20-85.40 340.40-89.40L340.40-89.40L340.40-89.40Q345.60-93.40 352.20-93.40L352.20-93.40L352.20-93.40Q358-93.40 361.60-89.30L361.60-89.30L361.60-89.30Q365.20-85.20 365.20-77.40L365.20-77.40L365.20-77.40Q365.20-68.40 360.40-56.80L360.40-56.80L360.40-56.80Q368-57.20 380.60-59.80L380.60-59.80L386-60.80ZM403-106.40L403-106.40Q394.60-106.40 390.40-110.30L390.40-110.30L390.40-110.30Q386.20-114.20 386.20-121.20L386.20-121.20L386.20-121.20Q386.20-128.20 391.70-132.90L391.70-132.90L391.70-132.90Q397.20-137.60 405.40-137.60L405.40-137.60L405.40-137.60Q412.80-137.60 417.40-134L417.40-134L417.40-134Q422-130.40 422-123.80L422-123.80L422-123.80Q422-115.80 416.80-111.10L416.80-111.10L416.80-111.10Q411.60-106.40 403-106.40L403-106.40ZM401.40 1L401.40 1Q388.40 1 382.50-8.20L382.50-8.20L382.50-8.20Q376.60-17.40 376.60-32.60L376.60-32.60L376.60-32.60Q376.60-41.60 378.90-55.70L378.90-55.70L378.90-55.70Q381.20-69.80 384.80-82L384.80-82L384.80-82Q386.60-88.40 389.60-90.80L389.60-90.80L389.60-90.80Q392.60-93.20 399.20-93.20L399.20-93.20L399.20-93.20Q409.40-93.20 409.40-86.40L409.40-86.40L409.40-86.40Q409.40-81.40 405.60-63.20L405.60-63.20L405.60-63.20Q400.80-41.20 400.80-33.40L400.80-33.40L400.80-33.40Q400.80-27.40 402.40-24.20L402.40-24.20L402.40-24.20Q404-21 407.80-21L407.80-21L407.80-21Q411.40-21 416.80-26L416.80-26L416.80-26Q422.20-31 431.20-41.80L431.20-41.80L431.20-41.80Q433.60-44.60 436.60-44.60L436.60-44.60L436.60-44.60Q439.20-44.60 440.70-42.20L440.70-42.20L440.70-42.20Q442.20-39.80 442.20-35.60L442.20-35.60L442.20-35.60Q442.20-27.60 438.40-23.20L438.40-23.20L438.40-23.20Q418.60 1 401.40 1L401.40 1ZM463.20 5.40L463.20 5.40Q452.80 5.40 447.30 0.60L447.30 0.60L447.30 0.60Q441.80-4.20 441.80-10.20L441.80-10.20L441.80-10.20Q441.80-15.40 445.60-19.20L445.60-19.20L445.60-19.20Q449.40-23 456.80-23L456.80-23L456.80-23Q459.40-23 462.90-22.50L462.90-22.50L462.90-22.50Q466.40-22 468.20-21.80L468.20-21.80L468.20-21.80Q468-27 465.90-31.60L465.90-31.60L465.90-31.60Q463.80-36.20 460.60-40.50L460.60-40.50L460.60-40.50Q457.40-44.80 454.60-48L454.60-48L454.60-48Q448.40-36.20 442.30-28.40L442.30-28.40L442.30-28.40Q436.20-20.60 429-13.60L429-13.60L429-13.60Q425.40-10 421.40-10L421.40-10L421.40-10Q418.20-10 416.20-12.30L416.20-12.30L416.20-12.30Q414.20-14.60 414.20-18L414.20-18L414.20-18Q414.20-22 417-25.40L417-25.40L419.60-28.60L419.60-28.60Q430.60-42.20 436.20-51L436.20-51L436.20-51Q439.60-56.80 444.20-66.50L444.20-66.50L444.20-66.50Q448.80-76.20 453.20-86.60L453.20-86.60L453.20-86.60Q457-95.40 469-95.40L469-95.40L469-95.40Q474.60-95.40 476.80-94.40L476.80-94.40L476.80-94.40Q479-93.40 479-91.20L479-91.20L479-91.20Q479-90 478.20-87.40L478.20-87.40L478.20-87.40Q477.40-84.80 476-82.20L476-82.20L476-82.20Q472.40-75 472.40-70L472.40-70L472.40-70Q472.40-67 474.50-63.40L474.50-63.40L474.50-63.40Q476.60-59.80 481-54.40L481-54.40L481-54.40Q487.40-46 490.70-40.10L490.70-40.10L490.70-40.10Q494-34.20 494-27.20L494-27.20L494-27.20Q494-25.20 493.60-21.60L493.60-21.60L493.60-21.60Q503.40-25.40 516.60-41.80L516.60-41.80L516.60-41.80Q519-44.60 522-44.60L522-44.60L522-44.60Q524.60-44.60 526.10-42.20L526.10-42.20L526.10-42.20Q527.60-39.80 527.60-35.60L527.60-35.60L527.60-35.60Q527.60-28 523.80-23.20L523.80-23.20L523.80-23.20Q513.80-10.80 504.70-6.30L504.70-6.30L504.70-6.30Q495.60-1.80 482.20-1.40L482.20-1.40L482.20-1.40Q474.20 5.40 463.20 5.40L463.20 5.40ZM537.60-106.40L537.60-106.40Q529.20-106.40 525-110.30L525-110.30L525-110.30Q520.80-114.20 520.80-121.20L520.80-121.20L520.80-121.20Q520.80-128.20 526.30-132.90L526.30-132.90L526.30-132.90Q531.80-137.60 540-137.60L540-137.60L540-137.60Q547.40-137.60 552-134L552-134L552-134Q556.60-130.40 556.60-123.80L556.60-123.80L556.60-123.80Q556.60-115.80 551.40-111.10L551.40-111.10L551.40-111.10Q546.20-106.40 537.60-106.40L537.60-106.40ZM536 1L536 1Q523 1 517.10-8.20L517.10-8.20L517.10-8.20Q511.20-17.40 511.20-32.60L511.20-32.60L511.20-32.60Q511.20-41.60 513.50-55.70L513.50-55.70L513.50-55.70Q515.80-69.80 519.40-82L519.40-82L519.40-82Q521.20-88.40 524.20-90.80L524.20-90.80L524.20-90.80Q527.20-93.20 533.80-93.20L533.80-93.20L533.80-93.20Q544-93.20 544-86.40L544-86.40L544-86.40Q544-81.40 540.20-63.20L540.20-63.20L540.20-63.20Q535.40-41.20 535.40-33.40L535.40-33.40L535.40-33.40Q535.40-27.40 537-24.20L537-24.20L537-24.20Q538.60-21 542.40-21L542.40-21L542.40-21Q546-21 551.40-26L551.40-26L551.40-26Q556.80-31 565.80-41.80L565.80-41.80L565.80-41.80Q568.20-44.60 571.20-44.60L571.20-44.60L571.20-44.60Q573.80-44.60 575.30-42.20L575.30-42.20L575.30-42.20Q576.80-39.80 576.80-35.60L576.80-35.60L576.80-35.60Q576.80-27.60 573-23.20L573-23.20L573-23.20Q553.20 1 536 1L536 1ZM662.60-61.40L662.60-61.40Q665.20-61.40 666.60-58.80L666.60-58.80L666.60-58.80Q668-56.20 668-52.20L668-52.20L668-52.20Q668-42.60 662.20-40.80L662.20-40.80L662.20-40.80Q650.20-36.60 635.80-36L635.80-36L635.80-36Q632-19.20 620.80-9.10L620.80-9.10L620.80-9.10Q609.60 1 595.40 1L595.40 1L595.40 1Q583.40 1 574.90-4.80L574.90-4.80L574.90-4.80Q566.40-10.60 562-20.20L562-20.20L562-20.20Q557.60-29.80 557.60-41L557.60-41L557.60-41Q557.60-56.20 563.40-68.10L563.40-68.10L563.40-68.10Q569.20-80 579.40-86.70L579.40-86.70L579.40-86.70Q589.60-93.40 602-93.40L602-93.40L602-93.40Q617.20-93.40 626.50-82.90L626.50-82.90L626.50-82.90Q635.80-72.40 637.40-57L637.40-57L637.40-57Q646.80-57.60 659.80-61L659.80-61L659.80-61Q661.40-61.40 662.60-61.40L662.60-61.40ZM597-20.20L597-20.20Q603.40-20.20 608.10-25.40L608.10-25.40L608.10-25.40Q612.80-30.60 614.40-40.40L614.40-40.40L614.40-40.40Q608.20-44.60 604.90-51.40L604.90-51.40L604.90-51.40Q601.60-58.20 601.60-65.80L601.60-65.80L601.60-65.80Q601.60-69 602.20-72.20L602.20-72.20L601.20-72.20L601.20-72.20Q593.20-72.20 587.90-64.50L587.90-64.50L587.90-64.50Q582.60-56.80 582.60-42.80L582.60-42.80L582.60-42.80Q582.60-31.80 586.90-26L586.90-26L586.90-26Q591.20-20.20 597-20.20L597-20.20ZM665 1L665 1Q657.40 1 654.30-7L654.30-7L654.30-7Q651.20-15 651.20-32.60L651.20-32.60L651.20-32.60Q651.20-58.60 658.60-82L658.60-82L658.60-82Q660.40-87.80 664.50-90.50L664.50-90.50L664.50-90.50Q668.60-93.20 676-93.20L676-93.20L676-93.20Q680-93.20 681.60-92.20L681.60-92.20L681.60-92.20Q683.20-91.20 683.20-88.40L683.20-88.40L683.20-88.40Q683.20-85.20 680.20-74L680.20-74L680.20-74Q678.20-66 677-60L677-60L677-60Q675.80-54 675-45.20L675-45.20L675-45.20Q681.60-62.40 689.80-73.20L689.80-73.20L689.80-73.20Q698-84 705.90-88.60L705.90-88.60L705.90-88.60Q713.80-93.20 720.40-93.20L720.40-93.20L720.40-93.20Q733.40-93.20 733.40-80.20L733.40-80.20L733.40-80.20Q733.40-72.40 729-52L729-52L729-52Q725.20-34.60 725.20-29L725.20-29L725.20-29Q725.20-21 731-21L731-21L731-21Q735-21 740.50-25.90L740.50-25.90L740.50-25.90Q746-30.80 755.20-41.80L755.20-41.80L755.20-41.80Q757.60-44.60 760.60-44.60L760.60-44.60L760.60-44.60Q763.20-44.60 764.70-42.20L764.70-42.20L764.70-42.20Q766.20-39.80 766.20-35.60L766.20-35.60L766.20-35.60Q766.20-27.60 762.40-23.20L762.40-23.20L762.40-23.20Q753.80-12.60 743.90-5.80L743.90-5.80L743.90-5.80Q734 1 721.40 1L721.40 1L721.40 1Q711.20 1 706-4.90L706-4.90L706-4.90Q700.80-10.80 700.80-22L700.80-22L700.80-22Q700.80-27.60 703.60-42L703.60-42L703.60-42Q706.20-54.60 706.20-59.40L706.20-59.40L706.20-59.40Q706.20-62.60 704-62.60L704-62.60L704-62.60Q701.40-62.60 696.70-55.90L696.70-55.90L696.70-55.90Q692-49.20 687.10-38.20L687.10-38.20L687.10-38.20Q682.20-27.20 679.20-15L679.20-15L679.20-15Q677-5.60 674.10-2.30L674.10-2.30L674.10-2.30Q671.20 1 665 1L665 1ZM839.20-44.60L839.20-44.60Q841.80-44.60 843.30-42.20L843.30-42.20L843.30-42.20Q844.80-39.80 844.80-35.60L844.80-35.60L844.80-35.60Q844.80-27.60 841.00-23.20L841.00-23.20L841.00-23.20Q833.60-14.20 820.10-6.60L820.10-6.60L820.10-6.60Q806.60 1 791.20 1L791.20 1L791.20 1Q770.20 1 758.60-10.40L758.60-10.40L758.60-10.40Q747.00-21.80 747.00-41.60L747.00-41.60L747.00-41.60Q747.00-55.40 752.80-67.30L752.80-67.30L752.80-67.30Q758.60-79.20 768.90-86.20L768.90-86.20L768.90-86.20Q779.20-93.20 792.20-93.20L792.20-93.20L792.20-93.20Q803.80-93.20 810.80-86.30L810.80-86.30L810.80-86.30Q817.80-79.40 817.80-67.60L817.80-67.60L817.80-67.60Q817.80-53.80 807.90-43.90L807.90-43.90L807.90-43.90Q798.00-34 774.40-28.20L774.40-28.20L774.40-28.20Q779.40-19 793.40-19L793.40-19L793.40-19Q802.40-19 813.90-25.30L813.90-25.30L813.90-25.30Q825.40-31.60 833.80-41.80L833.80-41.80L833.80-41.80Q836.20-44.60 839.20-44.60L839.20-44.60ZM788.80-73.60L788.80-73.60Q781.40-73.60 776.30-65L776.30-65L776.30-65Q771.20-56.40 771.20-44.20L771.20-44.20L771.20-43.80L771.20-43.80Q783.00-46.60 789.80-52.20L789.80-52.20L789.80-52.20Q796.60-57.80 796.60-65.20L796.60-65.20L796.60-65.20Q796.60-69 794.50-71.30L794.50-71.30L794.50-71.30Q792.40-73.60 788.80-73.60L788.80-73.60ZM842.80 1L842.80 1Q835.20 1 832.10-7L832.10-7L832.10-7Q829.00-15 829.00-32.60L829.00-32.60L829.00-32.60Q829.00-58.60 836.40-82L836.40-82L836.40-82Q838.20-87.80 842.30-90.50L842.30-90.50L842.30-90.50Q846.40-93.20 853.80-93.20L853.80-93.20L853.80-93.20Q857.80-93.20 859.40-92.20L859.40-92.20L859.40-92.20Q861.00-91.20 861.00-88.40L861.00-88.40L861.00-88.40Q861.00-85.20 858.00-74L858.00-74L858.00-74Q856.00-66 854.80-60L854.80-60L854.80-60Q853.60-54 852.80-45.20L852.80-45.20L852.80-45.20Q859.40-62.40 867.60-73.20L867.60-73.20L867.60-73.20Q875.80-84 883.70-88.60L883.70-88.60L883.70-88.60Q891.60-93.20 898.20-93.20L898.20-93.20L898.20-93.20Q911.20-93.20 911.20-80.20L911.20-80.20L911.20-80.20Q911.20-77.60 909.40-67.60L909.40-67.60L909.40-67.60Q907.80-59.60 907.80-57.60L907.80-57.60L907.80-57.60Q907.80-50.60 912.80-50.60L912.80-50.60L912.80-50.60Q918.40-50.60 927.20-59.40L927.20-59.40L927.20-59.40Q929.80-62 932.60-62L932.60-62L932.60-62Q935.20-62 936.70-59.70L936.70-59.70L936.70-59.70Q938.20-57.40 938.20-53.60L938.20-53.60L938.20-53.60Q938.20-46.20 934.20-42L934.20-42L934.20-42Q928.60-36.20 921.10-32.10L921.10-32.10L921.10-32.10Q913.60-28 905.20-28L905.20-28L905.20-28Q894.60-28 889.10-33.40L889.10-33.40L889.10-33.40Q883.60-38.80 883.60-48L883.60-48L883.60-48Q883.60-51 884.20-54L884.20-54L884.20-54Q884.60-58 884.60-59.40L884.60-59.40L884.60-59.40Q884.60-62.60 882.40-62.60L882.40-62.60L882.40-62.60Q879.40-62.60 874.50-55.90L874.50-55.90L874.50-55.90Q869.60-49.20 864.80-38.20L864.80-38.20L864.80-38.20Q860.00-27.20 857.00-15L857.00-15L857.00-15Q854.80-5.60 851.90-2.30L851.90-2.30L851.90-2.30Q849.00 1 842.80 1L842.80 1Z" fill="#a26ceb"></path></g></g><style>text {
  font-size: 64px;
  font-family: Arial Black;
  dominant-baseline: central;
  text-anchor: middle;
}</style></svg>